<svg width="24" height="24" viewBox="0 0 24 24" fill="none" xmlns="http://www.w3.org/2000/svg">
<path opacity="0.25" d="M12 21C16.9706 21 21 16.9706 21 12C21 7.02944 16.9706 3 12 3C7.02944 3 3 7.02944 3 12C3 16.9706 7.02944 21 12 21Z" fill="#FFA000"/>
<path d="M12 22C6.5 22 2 17.5 2 12C2 6.5 6.5 2 12 2C17.5 2 22 6.5 22 12C22 17.5 17.5 22 12 22ZM12 4C7.6 4 4 7.6 4 12C4 16.4 7.6 20 12 20C16.4 20 20 16.4 20 12C20 7.6 16.4 4 12 4Z" fill="#6B6A81"/>
<path d="M8.67641 7.26231L7.26221 8.67651L15.2524 16.6667L16.6666 15.2525L8.67641 7.26231Z" fill="#6B6A81"/>
<path d="M15.2524 7.33326L7.26221 15.3235L8.67641 16.7377L16.6666 8.74746L15.2524 7.33326Z" fill="#6B6A81"/>
</svg>
