<svg width="24" height="24" viewBox="0 0 24 24" fill="none" xmlns="http://www.w3.org/2000/svg">
<path opacity="0.25" d="M19 20H5C4.448 20 4 19.552 4 19V5C4 4.448 4.448 4 5 4H19C19.552 4 20 4.448 20 5V19C20 19.552 19.552 20 19 20Z" fill="#FFA000"/>
<path d="M11.621 20.9999V15.0389H9.278V12.3139H11.621V10.3089C11.621 7.98485 13.042 6.71785 15.116 6.71785C15.815 6.71585 16.513 6.75185 17.208 6.82285V9.25285H15.78C14.65 9.25285 14.43 9.78685 14.43 10.5749V12.3099H17.13L16.779 15.0349H14.414V20.9999H11.621Z" fill="#6B6A81"/>
<path d="M19 2.99902H5C3.897 2.99902 3 3.89602 3 4.99902V18.999C3 20.102 3.897 20.999 5 20.999H19C20.103 20.999 21 20.102 21 18.999V4.99902C21 3.89602 20.103 2.99902 19 2.99902ZM5 18.999V4.99902H19L19.001 18.999H5Z" fill="#6B6A81"/>
</svg>
