<svg width="24" height="24" viewBox="0 0 24 24" fill="none" xmlns="http://www.w3.org/2000/svg">
<path opacity="0.25" d="M16 4H8C5.791 4 4 5.791 4 8V16C4 18.209 5.791 20 8 20H16C18.209 20 20 18.209 20 16V8C20 5.791 18.209 4 16 4ZM12 16C9.791 16 8 14.209 8 12C8 9.791 9.791 8 12 8C14.209 8 16 9.791 16 12C16 14.209 14.209 16 12 16Z" fill="#FFA000"/>
<path d="M16 3H8C5.243 3 3 5.243 3 8V16C3 18.757 5.243 21 8 21H16C18.757 21 21 18.757 21 16V8C21 5.243 18.757 3 16 3ZM19 16C19 17.654 17.654 19 16 19H8C6.346 19 5 17.654 5 16V8C5 6.346 6.346 5 8 5H16C17.654 5 19 6.346 19 8V16Z" fill="#6B6A81"/>
<path d="M12 7C9.243 7 7 9.243 7 12C7 14.757 9.243 17 12 17C14.757 17 17 14.757 17 12C17 9.243 14.757 7 12 7ZM12 15C10.346 15 9 13.654 9 12C9 10.346 10.346 9 12 9C13.654 9 15 10.346 15 12C15 13.654 13.654 15 12 15Z" fill="#6B6A81"/>
<path d="M17 8C17.5523 8 18 7.55228 18 7C18 6.44772 17.5523 6 17 6C16.4477 6 16 6.44772 16 7C16 7.55228 16.4477 8 17 8Z" fill="#6B6A81"/>
</svg>
