<svg width="600" height="596" viewBox="0 0 600 596" fill="none" xmlns="http://www.w3.org/2000/svg">
<path d="M216.188 70.2842C252.603 13.2428 387.208 -21.1686 441.14 14.5557C495.072 50.28 470.162 131.264 504.366 152.27C538.57 173.311 617.205 243.343 596.613 326.78C567.592 444.526 598.03 498.941 554.117 537.81C490.891 593.78 420.41 547.829 334.347 572.014C248.319 596.198 117.894 616.41 63.7893 555.948C23.3663 510.757 39.3973 450.468 13.0014 390.905C-19.1297 318.35 8.85547 246.867 90.738 233.22C172.621 219.573 181.983 123.905 216.188 70.2842Z" fill="url(#paint0_linear)"/>
<path d="M370.106 507.164C390.456 502.155 409.493 492.93 426.698 479.697C440.484 469.091 453.163 455.927 464.323 440.587C483.36 414.399 491.617 390.594 491.686 390.352C491.859 389.799 492.446 389.523 492.999 389.696C493.552 389.868 493.828 390.456 493.655 391.009C493.586 391.25 485.26 415.297 466.05 441.727C454.753 457.275 441.969 470.576 428.011 481.287C410.564 494.726 391.25 504.089 370.624 509.168C370.555 509.203 370.452 509.203 370.382 509.203C369.933 509.203 369.519 508.892 369.346 508.408C369.208 507.855 369.553 507.303 370.106 507.164Z" fill="white"/>
<path d="M52.2497 350.688C52.768 350.516 53.3553 350.827 53.5281 351.379C53.5626 351.518 57.9159 365.648 67.106 383.234C75.5707 399.438 89.9434 421.964 110.5 437.201C110.95 437.546 111.053 438.203 110.708 438.652C110.5 438.928 110.189 439.066 109.878 439.066C109.671 439.066 109.464 438.997 109.291 438.894C88.4232 423.415 73.8433 400.613 65.2749 384.201C56.0157 366.443 51.5933 352.105 51.5587 351.967C51.386 351.448 51.6969 350.861 52.2497 350.688Z" fill="white"/>
<path d="M547.898 172.655C564.171 166.09 572.567 156.382 576.747 149.403C581.273 141.802 581.964 135.721 581.964 135.652C582.033 135.065 582.517 134.65 583.104 134.719C583.692 134.788 584.106 135.307 584.037 135.859C584.003 136.136 583.312 142.389 578.578 150.336C574.225 157.626 565.519 167.749 548.658 174.555C548.555 174.589 548.417 174.624 548.278 174.624C547.864 174.624 547.484 174.382 547.311 174.002C547.104 173.484 547.38 172.862 547.898 172.655Z" fill="white"/>
<path d="M293.959 93.5016C293.855 93.5361 293.717 93.5707 293.613 93.5707C293.199 93.5707 292.784 93.2943 292.646 92.8797C292.439 92.3614 292.715 91.7741 293.268 91.5668C302.492 88.2846 309.022 77.8161 309.091 77.7124C309.368 77.2287 310.024 77.056 310.508 77.3669C310.992 77.6433 311.164 78.2998 310.853 78.7834C310.577 79.2326 303.874 89.9775 293.959 93.5016Z" fill="white"/>
<path d="M545.825 26.5443C545.583 26.5443 545.307 26.4406 545.031 26.2679C544.962 26.1642 535.15 16.7667 519.326 13.8646C518.773 13.7609 518.393 13.2081 518.497 12.6553C518.6 12.1025 519.153 11.7225 519.706 11.8261C536.186 14.8665 546.102 24.3676 546.516 24.7822C546.931 25.1623 546.965 25.8187 546.551 26.2333C546.378 26.4406 546.102 26.5443 545.825 26.5443Z" fill="white"/>
<path d="M27.7541 293.889C27.9959 293.371 28.4105 293.025 28.9287 292.852C30.518 292.369 33.0056 293.958 36.9443 296.584C38.879 297.862 42.7486 300.453 43.9233 300.384C43.6814 299.14 40.7101 295.547 38.7408 293.129C33.9039 287.221 30.7944 283.144 31.4163 280.483C31.6927 279.274 32.3837 278.791 32.9365 278.618C33.5239 278.445 34.1112 278.48 34.6985 278.687C34.6295 278.445 34.6294 278.203 34.6294 277.996C34.6639 277.27 34.9749 276.856 35.2168 276.614C37.6698 274.334 40.8138 277.374 46.549 282.937C47.7237 284.077 49.0366 285.39 50.4877 286.737C52.0079 288.154 55.1519 291.194 57.1903 293.163C56.0502 286.253 56.3611 281.52 58.0886 279.378C58.9178 278.341 59.8506 278.203 60.2997 278.203C61.6818 278.203 62.2 279.551 64.8949 290.054C66.1041 294.753 67.3479 299.659 68.4189 302.215C69.49 304.841 78.6456 317.348 90.3579 329.889C98.6498 338.769 114.301 354.04 125.702 356.527C131.921 357.875 138.451 356.942 145.05 353.694C150.751 350.93 156.659 346.37 162.636 340.185C154.102 330.891 151.891 330.58 151.476 330.615C149.991 330.822 147.538 331.997 145.154 333.103C140.317 335.383 135.272 337.732 133.165 335.141C132.716 334.588 132.578 333.932 132.785 333.241C133.372 331.133 137.898 328.784 142.182 327.022C137.173 327.436 131.23 327.92 129.814 328.024C129.123 328.093 128.501 328.127 127.913 328.127C125.633 328.127 124.044 327.644 123.249 326.607C122.316 325.536 122.558 324.396 122.593 324.258C122.662 324.085 122.731 323.912 122.869 323.774C123.733 322.876 125.046 322.116 126.6 321.494C126.186 321.217 125.84 320.837 125.564 320.388C125.253 319.766 125.046 318.73 125.84 317.279C128.052 313.34 142.493 311.889 149.541 311.405C147.848 310.334 145.603 308.883 143.426 307.363C134.651 301.351 134.374 300.039 134.961 298.968C135.169 298.553 135.652 298 136.62 297.758C139.349 297.102 145.983 299.486 156.382 304.772C154.309 297.931 154.689 293.854 157.522 292.61C157.799 292.472 158.282 292.369 158.835 292.61C159.803 293.025 161.392 294.545 164.881 302.733C166.436 306.43 167.784 310.023 168.198 311.164C170.133 312.235 172.102 313.375 174.21 314.584C176.179 315.724 178.183 316.899 180.118 318.073C183.573 313.064 188.824 306.43 194.836 299.279C194.87 299.14 194.94 299.037 195.043 298.933C195.251 298.691 196.114 297.724 197.427 296.204C204.821 287.497 213.009 278.307 220.092 270.464C233.601 255.539 245.797 242.617 248.457 239.819C248.491 239.784 248.526 239.715 248.561 239.68L240.856 208.033L239.543 202.747C238.057 202.989 236.572 203.092 235.121 203.092C230.387 203.092 225.965 201.849 221.992 199.43C214.978 195.077 212.387 186.163 214.391 173.656C213.285 174.209 212.283 174.382 211.454 174.382C211.074 174.382 210.694 174.347 210.418 174.278C208.31 173.898 206.686 172.481 206.03 171.238C205.374 169.959 205.512 168.232 206.41 166.988C206.997 166.159 208.448 164.881 211.42 165.433C215.151 166.159 216.775 163.326 217.189 162.428C217.189 162.358 217.224 162.289 217.224 162.186C220.506 152.235 225.792 142.181 231.389 135.133C231.389 133.406 231.562 131.713 231.873 130.089C233.324 122.799 238.783 113.713 256.611 111.881C296.757 107.735 312.235 84.5873 322.428 69.2472C323.188 68.1416 323.913 67.0706 324.604 66.0341C334.796 51.1087 351.829 26.1293 407.074 29.6534C429.981 31.1045 442.004 25.5074 453.682 20.1177C461.49 16.49 468.883 13.035 478.937 12.1367C490.166 11.1348 503.122 13.4151 519.74 19.3576C536.151 25.231 550.593 35.285 561.511 48.4484C571.668 60.6789 578.578 75.2243 581.446 90.4607C583.795 102.899 583.312 115.44 580.064 126.634C576.574 138.588 570.217 148.642 561.165 156.554C546.309 169.51 528.481 176.662 506.715 178.424C487.575 179.979 467.985 177.318 449.017 174.727C440.138 173.518 431.777 172.378 423.554 171.652C398.16 169.476 383.442 177.457 367.826 185.921C356.355 192.14 344.47 198.601 327.437 202.056C321.668 203.231 316.381 203.714 311.614 203.714C298.692 203.714 289.364 200.087 283.317 196.459C279.033 193.937 275.889 191.173 273.782 188.962L286.461 226.966C287.394 226.759 303.771 223.373 325.399 223.719C338.39 223.96 350.758 225.515 362.091 228.314C376.29 231.838 388.936 237.366 399.681 244.759C411.427 252.844 421.965 263.347 430.741 275.439C434.126 271.432 446.15 257.404 460.211 245.07C469.954 236.536 478.73 230.421 486.296 226.966C496.039 222.544 503.882 222.406 509.617 226.552C511.379 227.83 512.485 229.765 512.9 232.356C514.109 239.922 509.203 253.638 498.32 273.021C488.991 289.639 475.344 310.438 457.724 334.795C457.897 335.003 457.966 335.314 457.897 335.59C457.793 336.108 457.344 336.454 456.86 336.454C456.791 336.454 456.722 336.454 456.618 336.419H456.549C456.446 336.557 456.376 336.661 456.273 336.799C457.793 346.335 458.242 355.905 457.62 365.441C456.515 382.612 451.954 399.127 444.042 414.536C436.13 429.911 426.802 443.074 416.299 453.646C406.556 463.424 395.707 471.059 384.064 476.345C371.315 482.15 357.737 485.052 343.883 485.052C339.599 485.052 335.28 484.775 330.927 484.222C316.969 497.835 303.84 509.409 291.886 518.738C291.817 518.807 291.782 518.876 291.678 518.945C267.563 537.705 248.353 547.137 234.292 547.137C228.833 547.137 224.169 545.721 220.23 542.853C217.224 540.607 215.462 537.222 215.013 532.765C213.631 518.807 225.758 494.76 244.518 474.065C240.441 467.95 236.71 461.454 233.359 454.613C227.9 455.304 222.406 455.615 216.879 455.615C206.237 455.615 195.561 454.337 184.886 451.884C162.878 446.667 141.94 436.199 122.731 420.686C86.3156 391.284 55.1519 332.999 44.8907 313.858C43.2323 310.783 41.9194 308.33 41.6085 307.95C40.8483 306.948 38.6717 305.359 36.3569 303.701C30.2761 299.244 26.683 296.411 27.7541 293.889ZM285.874 491.098C281.072 480.94 276.649 480.526 271.571 480.007C268.15 479.662 264.315 479.282 260.135 476.034C254.33 471.543 255.47 465.462 256.403 460.556C257.302 455.754 257.682 452.713 254.365 450.951C245.797 446.425 232.84 439.584 231.735 422.068C227.658 418.06 223.788 414.087 220.195 410.252C220.195 410.286 220.195 410.321 220.195 410.355C223.754 414.156 227.624 418.06 231.666 422.102C232.771 439.619 245.728 446.46 254.296 450.986C257.613 452.748 257.233 455.788 256.334 460.591C255.401 465.497 254.261 471.577 260.066 476.069C264.246 479.316 268.081 479.696 271.502 480.042C276.58 480.56 281.003 480.975 285.805 491.132C291.886 504.019 298.968 506.783 302.596 507.302C298.934 510.411 295.375 513.348 291.92 516.077C295.41 513.348 299.003 510.377 302.665 507.267C299.003 506.749 291.955 503.95 285.874 491.098Z" fill="white"/>
<path d="M523.923 270.914C517.56 266.982 515.589 258.636 519.521 252.273C523.453 245.91 531.799 243.939 538.163 247.871C544.526 251.804 546.496 260.15 542.564 266.513C538.632 272.876 530.286 274.846 523.923 270.914Z" fill="white"/>
<path d="M452.058 244C448.814 244 446.184 241.37 446.184 238.126C446.184 234.883 448.814 232.253 452.058 232.253C455.301 232.253 457.931 234.883 457.931 238.126C457.931 241.37 455.301 244 452.058 244Z" fill="white"/>
<path d="M401.581 504.78C419.685 504.297 442.176 486.02 442.418 485.847C442.867 485.467 443.524 485.536 443.869 485.985C444.249 486.435 444.18 487.091 443.731 487.437C443.697 487.471 437.892 492.204 429.877 496.903C419.063 503.26 409.562 506.612 401.615 506.819C401.062 506.819 400.579 506.404 400.579 505.851C400.544 505.264 400.993 504.78 401.581 504.78Z" fill="white"/>
<path d="M100.032 341.636C100.032 341.636 92.6036 335.763 88.8031 338.009C86.661 339.252 83.9316 338.63 82.5496 336.592L71.9084 320.63C71.0101 319.283 70.8719 317.59 71.5283 316.139C72.1848 314.722 72.5994 312.373 71.5283 308.849C71.5283 308.814 95.5403 338.872 100.032 341.636Z" fill="white"/>
<path d="M245.935 371.868L219.124 353.556C215.255 350.654 211.454 351.449 210.072 353.315C208.379 355.595 209.139 358.462 212.733 360.605L223.719 367.894C225.481 369.069 226 371.384 224.963 373.215C223.616 375.565 224.929 378.57 227.589 379.123L237.954 381.3C241.582 382.06 245.313 380.401 247.144 377.188C248.181 375.323 247.662 373.042 245.935 371.868Z" fill="white"/>
<path d="M95.3331 348.512C94.2275 348.858 93.0528 348.65 92.0854 348.029C89.356 346.405 88.7687 344.228 90.0815 342.501C91.118 341.119 94.0202 340.497 96.9569 342.708C99.099 344.263 98.5117 347.579 95.9896 348.34L95.3331 348.512Z" fill="white"/>
<path d="M217.846 376.082C216.948 376.359 215.946 376.22 215.186 375.668L214.909 375.495C212.18 373.871 211.593 371.694 212.905 369.967C213.942 368.585 216.844 367.963 219.781 370.174C221.923 371.729 221.336 375.046 218.813 375.806L217.846 376.082Z" fill="white"/>
<path d="M182.363 362.712C182.363 362.712 193.661 387.829 196.874 413.603C200.087 439.412 198.705 453.266 198.705 453.266C198.705 453.266 223.27 456.203 233.324 452.748C233.324 452.748 220.23 422.206 218.917 406.866L206.755 394.256L182.363 362.712Z" fill="url(#paint1_linear)"/>
<path d="M239.232 251.186C240.269 252.429 241.443 253.501 242.722 254.053C250.15 257.301 259.375 260.203 267.597 259.858C278.861 259.408 287.671 254.088 296.654 247.489C301.422 243.999 305.637 240.441 309.23 235.777C311.683 232.598 313.514 229.281 314.654 225.654C324.121 225.343 335.557 225.377 348.444 226.241C385.066 228.659 437.236 263.209 452.783 324.362C468.331 385.515 434.299 428.702 434.299 428.702C431.708 415.573 420.307 392.079 394.049 372.386C367.791 352.692 321.909 355.042 321.909 355.042C312.996 377.084 293.648 375.702 275.544 374.666C257.44 373.629 213.527 340.116 213.527 340.116L180.532 319.214C186.648 308.538 225.585 265.973 239.232 251.186Z" fill="url(#paint2_linear)"/>
<path d="M351.104 346.197C351.242 346.197 351.38 346.197 351.518 346.197C353.522 346.163 358.325 345.713 359.361 341.947C360.294 338.493 357.115 335.556 353.522 334.139C352.935 333.897 352.313 333.69 351.691 333.483C352.209 333.448 352.728 333.379 353.246 333.31C354.524 333.172 358.359 332.723 359.499 329.786C360.467 327.298 358.774 324.604 356.632 323.222C353.315 321.114 349.169 321.045 345.852 321.01L323.637 320.769C323.084 320.769 322.6 321.218 322.6 321.805C322.6 322.392 323.049 322.842 323.637 322.842L345.852 323.083C348.927 323.118 352.728 323.152 355.526 324.949C356.943 325.847 358.152 327.609 357.599 329.026C357.15 330.201 355.63 330.926 353.039 331.237C349.756 331.617 346.44 331.755 343.123 331.721C342.121 331.652 341.084 331.617 340.082 331.617C339.53 331.617 339.08 332.066 339.046 332.619C339.046 333.172 339.461 333.656 340.013 333.69C341.015 333.759 341.983 333.794 342.985 333.794C346.336 334.07 349.653 334.83 352.762 336.04C355.388 337.076 357.979 339.218 357.357 341.395C356.666 343.882 352.693 344.124 351.484 344.124C348.236 344.159 344.885 343.779 341.672 343.399C336.282 342.777 330.719 342.12 325.295 343.364C324.742 343.502 324.397 344.055 324.501 344.608C324.639 345.161 325.192 345.506 325.744 345.402C330.823 344.262 335.971 344.85 341.43 345.472C344.574 345.817 347.856 346.197 351.104 346.197Z" fill="white"/>
<path d="M284.596 377.015C284.768 377.015 284.941 376.981 285.114 376.877C288.845 374.666 291.54 370.658 292.542 365.89C293.337 361.951 292.991 357.529 291.54 352.761C290.365 348.926 288.603 346.646 286.185 345.782C283.214 344.711 280.173 346.128 278.1 347.51C274.645 349.859 271.881 353.141 270.189 356.907C268.979 353.452 267.494 350.101 265.801 346.888C265.075 345.506 264.177 343.986 262.622 343.157C260.687 342.12 257.232 342.155 253.881 345.748C253.432 346.231 253.017 346.715 252.603 347.268C251.946 345.955 250.703 345.022 249.079 344.677C246.695 344.158 244 344.988 242.411 346.715C239.889 349.445 239.474 353.245 239.232 357.218C239.198 357.806 239.647 358.289 240.199 358.324C240.752 358.358 241.271 357.909 241.305 357.356C241.512 353.763 241.858 350.377 243.931 348.132C245.036 346.957 246.971 346.37 248.664 346.715C249.459 346.888 250.495 347.337 250.875 348.512C251.014 348.926 251.048 349.306 251.014 349.756C249.977 351.69 249.217 353.798 248.871 355.974C248.664 356.7 248.56 357.495 248.63 358.289C248.664 358.842 249.113 359.257 249.666 359.257C250.219 359.257 250.668 358.807 250.703 358.255C250.737 357.633 250.806 357.045 250.91 356.424C251.117 355.629 251.463 354.834 251.843 354.005C252.361 352.83 252.879 351.656 253.052 350.412C253.708 349.272 254.503 348.201 255.367 347.233C257.094 345.402 259.685 343.986 261.62 345.057C262.657 345.61 263.348 346.784 263.935 347.959C266.043 351.932 267.77 356.147 269.083 360.431C269.221 360.88 269.636 361.157 270.085 361.157C270.534 361.157 270.949 360.846 271.087 360.431C272.4 355.974 275.371 351.932 279.241 349.306C280.588 348.408 283.179 346.992 285.459 347.786C287.221 348.408 288.534 350.274 289.536 353.418C290.918 357.84 291.229 361.917 290.504 365.51C289.675 369.656 287.256 373.249 284.077 375.149C283.594 375.426 283.421 376.082 283.697 376.566C283.905 376.842 284.25 377.015 284.596 377.015Z" fill="white"/>
<path d="M226.069 322.289C228.211 322.289 230.353 322.047 232.46 321.563C235.501 320.872 237.401 319.559 238.092 317.625C238.887 315.448 237.781 313.133 236.33 311.751C243.689 312.408 251.083 312.027 258.373 310.542C259.72 310.265 261.275 309.885 262.38 308.745C264.212 306.845 263.832 303.839 262.553 301.974C261.24 300.073 259.167 299.037 257.336 298.277C257.094 298.173 256.852 298.069 256.611 298C258.58 297.966 260.584 297.931 262.553 297.862C268.254 297.62 270.223 294.925 270.189 292.714C270.154 291.229 269.29 289.985 268.461 289.017C262.242 281.658 252.948 278.445 244 275.301C240.165 273.954 236.192 272.572 232.53 270.879C232.011 270.637 231.389 270.879 231.148 271.397C230.906 271.915 231.148 272.537 231.666 272.779C235.397 274.507 239.439 275.923 243.309 277.271C252.43 280.449 261.033 283.455 266.872 290.365C267.494 291.09 268.116 291.92 268.116 292.783C268.116 293.094 268.15 294.096 266.492 294.925C265.455 295.444 264.004 295.755 262.484 295.824C257.993 295.996 253.432 296.031 248.906 295.927C245.935 295.444 242.894 295.271 239.889 295.513C239.336 295.547 238.921 295.996 238.921 296.549C238.921 297.102 239.336 297.551 239.889 297.586C242.825 297.793 245.762 297.931 248.699 298C251.394 298.449 254.019 299.21 256.542 300.281C258.096 300.937 259.858 301.801 260.86 303.252C261.689 304.427 261.931 306.327 260.929 307.363C260.238 308.054 259.133 308.331 258.027 308.573C249.079 310.369 239.992 310.507 230.975 309.022C230.457 308.918 229.938 309.264 229.8 309.782C229.662 310.3 229.938 310.853 230.457 311.026C232.046 311.578 233.704 312.166 234.914 313.271C235.881 314.135 236.676 315.655 236.192 317.003C235.743 318.212 234.361 319.11 232.046 319.628C227.347 320.699 222.407 320.458 217.811 318.972C217.259 318.799 216.671 319.11 216.499 319.628C216.326 320.181 216.637 320.769 217.155 320.941C220.023 321.805 223.063 322.289 226.069 322.289Z" fill="white"/>
<path d="M456.86 336.454C457.344 336.454 457.793 336.108 457.897 335.59C458 335.037 457.62 334.485 457.067 334.381L433.954 330.373C431.397 329.924 428.495 329.44 426.422 327.747C424.625 326.296 423.589 323.394 424.971 321.563C426.042 320.146 428.184 319.766 430.291 319.49C431.466 319.352 432.641 319.179 433.85 319.075C438.272 319.766 442.764 320.216 447.255 320.354C447.739 320.388 448.188 320.043 448.292 319.559C448.395 319.075 448.154 318.592 447.704 318.384C443.317 316.484 438.376 316.553 433.919 317.002C431.293 316.588 428.702 316.07 426.111 315.448C423.623 314.86 420.79 314.066 418.855 312.235C417.197 310.645 416.264 307.778 417.646 305.843C418.648 304.461 420.548 303.874 422.276 303.528C432.295 301.386 443.075 303.252 451.781 308.641C452.265 308.952 452.921 308.78 453.198 308.296C453.509 307.812 453.336 307.156 452.852 306.879C443.662 301.213 432.364 299.278 421.827 301.49C419.823 301.904 417.37 302.664 415.953 304.634C413.915 307.501 415.09 311.509 417.404 313.72C419.685 315.897 422.829 316.795 425.593 317.452C426.215 317.59 426.836 317.728 427.458 317.866C425.834 318.246 424.314 318.937 423.278 320.319C421.136 323.118 422.483 327.264 425.04 329.337C427.527 331.375 430.844 331.928 433.505 332.412L456.618 336.419C456.722 336.454 456.791 336.454 456.86 336.454Z" fill="white"/>
<path d="M321.771 286.841C325.122 286.841 328.197 285.321 329.752 282.834C331.169 280.519 331.41 277.444 330.339 274.369C329.925 273.125 329.303 271.985 328.577 270.914C332.723 272.503 336.938 273.747 341.222 274.645C343.33 275.06 345.748 275.475 348.167 274.922C350.931 274.265 353.038 272.331 353.557 269.981C354.109 267.494 352.935 264.764 350.171 262.138C347.891 259.996 345.265 258.234 342.432 256.921C343.157 256.852 343.917 256.749 344.643 256.61C345.472 256.472 346.405 256.265 347.2 255.678C348.685 254.607 349.549 252.084 348.409 249.666C347.511 247.766 345.714 246.557 344.297 245.693C336.938 241.305 328.094 240.268 320.285 239.336C319.733 239.267 319.214 239.681 319.145 240.234C319.076 240.787 319.491 241.305 320.044 241.374C327.644 242.272 336.282 243.309 343.261 247.455C344.436 248.146 345.887 249.148 346.578 250.564C347.096 251.635 347.061 253.259 346.059 253.985C345.61 254.33 344.919 254.468 344.332 254.572C341.257 255.125 338.148 255.159 335.073 254.676C335.038 254.676 335.004 254.676 334.969 254.676C334.416 254.572 333.863 254.987 333.794 255.539C333.691 256.092 334.105 256.645 334.658 256.714C334.693 256.714 334.727 256.714 334.762 256.749C339.979 257.578 344.954 260.031 348.789 263.659C350.344 265.11 352.071 267.321 351.587 269.567C351.207 271.363 349.376 272.538 347.752 272.918C345.748 273.367 343.572 273.022 341.706 272.607C335.729 271.363 329.856 269.428 324.224 266.733C323.533 266.319 322.773 265.939 322.013 265.662C321.495 265.455 320.907 265.697 320.7 266.215C320.493 266.733 320.7 267.321 321.184 267.563C321.875 267.908 322.566 268.254 323.257 268.599C325.675 270.085 327.541 272.365 328.474 275.06C329.337 277.513 329.165 280.035 328.094 281.763C326.712 283.974 323.602 285.183 320.527 284.699C318.005 284.319 315.414 283.006 312.374 280.553C306.016 275.405 301.041 268.323 298.346 260.584C298.174 260.031 297.552 259.754 297.034 259.962C296.481 260.135 296.204 260.756 296.412 261.275C299.21 269.359 304.427 276.787 311.095 282.177C313.203 283.87 316.416 286.185 320.251 286.772C320.665 286.807 321.218 286.841 321.771 286.841Z" fill="white"/>
<path d="M229.563 167.174C225.343 166.632 222.116 164.675 222.356 162.801C222.596 160.927 226.213 159.847 230.433 160.388C234.654 160.929 237.881 162.887 237.64 164.761C237.4 166.635 233.784 167.715 229.563 167.174Z" fill="white"/>
<path d="M234.81 179.253L225.205 189.1C225.205 189.1 230.802 192.037 234.706 188.064C238.61 184.09 234.81 179.253 234.81 179.253Z" fill="white"/>
<path d="M229.593 191.173C231.562 191.173 233.704 190.586 235.466 188.789C239.059 185.127 237.125 180.532 235.639 178.597C235.466 178.355 235.19 178.217 234.879 178.217C234.568 178.183 234.292 178.321 234.084 178.528L224.48 188.375C224.238 188.617 224.134 188.928 224.203 189.273C224.272 189.584 224.445 189.86 224.756 190.033C225.827 190.586 227.624 191.173 229.593 191.173ZM234.637 180.912C235.397 182.363 236.226 185.023 233.981 187.338C232.633 188.72 230.837 189.308 228.695 189.066C228.073 188.997 227.52 188.858 227.036 188.72L234.637 180.912Z" fill="#302F3D"/>
<path d="M186.751 347.752C181.561 347.752 177.354 343.498 177.354 338.251C177.354 333.004 181.561 328.75 186.751 328.75C191.941 328.75 196.149 333.004 196.149 338.251C196.149 343.498 191.941 347.752 186.751 347.752Z" fill="url(#paint3_linear)"/>
<path d="M186.751 340.565C185.473 340.565 184.436 339.529 184.436 338.25C184.436 336.972 185.473 335.936 186.751 335.936C188.03 335.936 189.066 336.972 189.066 338.25C189.066 339.529 188.03 340.565 186.751 340.565Z" fill="#302F3D"/>
<path d="M186.751 341.602C188.582 341.602 190.103 340.082 190.103 338.251C190.103 336.42 188.617 334.899 186.751 334.899C184.92 334.899 183.4 336.42 183.4 338.251C183.4 340.082 184.92 341.602 186.751 341.602ZM186.751 336.938C187.442 336.938 188.03 337.525 188.03 338.216C188.03 338.907 187.477 339.495 186.751 339.495C186.06 339.495 185.473 338.907 185.473 338.216C185.473 337.525 186.06 336.938 186.751 336.938Z" fill="#302F3D"/>
<path d="M186.613 336.799C187.235 336.765 187.65 336.281 187.65 335.728L187.511 332.032C187.477 331.444 187.028 330.995 186.44 331.03C185.853 331.064 185.438 331.548 185.438 332.101L185.577 335.798C185.611 336.35 186.06 336.799 186.613 336.799Z" fill="#302F3D"/>
<path d="M290.987 519.118C291.195 519.118 291.437 519.049 291.609 518.911C303.667 509.513 316.969 497.801 331.1 484.015C331.514 483.601 331.514 482.944 331.134 482.564C330.72 482.15 330.063 482.15 329.683 482.53C315.587 496.246 302.354 507.958 290.366 517.287C289.916 517.632 289.847 518.289 290.193 518.738C290.366 518.98 290.677 519.118 290.987 519.118Z" fill="#302F3D"/>
<path d="M455.098 336.627C494.796 281.97 521.33 236.295 509.03 227.382C485.26 210.176 430.637 277.271 430.637 277.271C430.637 277.271 444.63 298.692 447.221 305.222C450.227 312.719 455.098 336.627 455.098 336.627Z" fill="#302F3D"/>
<path d="M455.098 337.664C455.409 337.664 455.754 337.525 455.927 337.249C474.411 311.821 488.68 290.192 498.32 273.021C509.203 253.639 514.109 239.923 512.9 232.356C512.485 229.765 511.379 227.83 509.617 226.552C503.882 222.406 496.039 222.544 486.296 226.967C478.73 230.422 469.954 236.537 460.211 245.071C443.697 259.582 429.946 276.442 429.808 276.58C429.531 276.925 429.497 277.409 429.739 277.789C429.877 277.996 443.697 299.21 446.253 305.567C449.19 312.926 454.027 336.558 454.062 336.8C454.131 337.214 454.442 337.525 454.856 337.595C454.96 337.664 455.029 337.664 455.098 337.664ZM499.874 225.619C503.018 225.619 505.92 226.414 508.408 228.245C509.721 229.212 510.516 230.664 510.861 232.702C512.347 242.134 503.951 267.39 455.616 334.14C454.303 327.921 450.676 311.06 448.188 304.842C445.804 298.864 434.299 281.037 431.915 277.34C434.472 274.265 446.979 259.512 461.628 246.625C473.306 236.364 488.3 225.619 499.874 225.619Z" fill="#302F3D"/>
<path d="M370.382 509.203C370.452 509.203 370.555 509.203 370.624 509.168C391.25 504.089 410.564 494.726 428.011 481.287C441.969 470.576 454.753 457.275 466.05 441.727C485.26 415.297 493.586 391.25 493.655 391.009C493.828 390.456 493.552 389.868 492.999 389.696C492.446 389.523 491.859 389.799 491.686 390.352C491.617 390.594 483.36 414.399 464.323 440.587C453.163 455.927 440.484 469.091 426.698 479.697C409.493 492.93 390.456 502.155 370.106 507.164C369.553 507.303 369.208 507.855 369.346 508.408C369.519 508.892 369.933 509.203 370.382 509.203Z" fill="#302F3D"/>
<path d="M109.878 439.066C110.189 439.066 110.5 438.928 110.708 438.652C111.053 438.203 110.95 437.546 110.5 437.201C89.9434 421.964 75.5707 399.438 67.106 383.234C57.9159 365.648 53.5626 351.518 53.5281 351.379C53.3553 350.827 52.768 350.516 52.2497 350.688C51.6969 350.861 51.386 351.448 51.5587 351.967C51.5933 352.105 56.0157 366.443 65.2749 384.201C73.8433 400.613 88.4232 423.415 109.291 438.894C109.464 438.997 109.671 439.066 109.878 439.066Z" fill="#302F3D"/>
<path d="M235.397 167.852C234.326 168.163 233.082 168.335 231.735 168.335C230.975 168.335 230.215 168.266 229.455 168.163C229.351 168.163 229.213 168.128 229.109 168.128C229.075 168.128 229.04 168.128 228.971 168.128C228.902 168.128 228.833 168.128 228.764 168.094C228.729 168.094 228.314 168.025 227.693 167.852C224.376 167.092 222.026 165.502 221.474 163.706V163.671C221.439 163.602 221.439 163.533 221.439 163.464C221.405 163.222 221.37 163.015 221.37 162.773C221.405 161.909 221.854 161.184 222.717 160.631C224.03 159.664 226.241 159.145 228.867 159.214C229.42 159.214 230.007 159.283 230.629 159.353C232.806 159.629 234.81 160.285 236.295 161.184C238.023 162.22 238.887 163.533 238.714 164.881C238.541 166.228 237.332 167.264 235.397 167.852ZM235.19 162.98C233.981 162.255 232.288 161.702 230.491 161.46C230.871 162.669 231.078 164.397 230.491 166.228C232.115 166.366 233.67 166.228 234.844 165.882C235.881 165.571 236.572 165.088 236.641 164.639C236.675 164.19 236.123 163.533 235.19 162.98Z" fill="#302F3D"/>
<path d="M267.01 176.317L271.121 171.895C270.396 171.204 269.705 170.927 269.636 170.893C269.083 170.685 268.841 170.063 269.048 169.545C269.256 169.027 269.878 168.751 270.396 168.958C272.331 169.718 275.751 172.62 274.646 178.079C274.576 178.563 274.127 178.908 273.644 178.908C273.575 178.908 273.505 178.908 273.471 178.874C272.884 178.77 272.538 178.217 272.642 177.664C272.987 175.937 272.78 174.624 272.331 173.622L268.53 177.699C268.323 177.941 268.047 178.044 267.77 178.044C267.528 178.044 267.286 177.941 267.079 177.768C266.63 177.388 266.63 176.732 267.01 176.317Z" fill="#302F3D"/>
<path d="M548.278 174.624C548.417 174.624 548.555 174.589 548.658 174.555C565.519 167.749 574.225 157.626 578.578 150.336C583.312 142.389 584.003 136.136 584.037 135.859C584.106 135.307 583.692 134.788 583.104 134.719C582.517 134.65 582.033 135.065 581.964 135.652C581.964 135.721 581.273 141.802 576.747 149.403C572.567 156.382 564.171 166.09 547.898 172.655C547.38 172.862 547.104 173.484 547.311 174.002C547.484 174.382 547.864 174.624 548.278 174.624Z" fill="#302F3D"/>
<path d="M293.613 93.5707C293.717 93.5707 293.855 93.5361 293.959 93.5016C303.874 89.9775 310.577 79.2326 310.853 78.7834C311.164 78.2998 310.992 77.6433 310.508 77.3669C310.024 77.056 309.368 77.2287 309.091 77.7124C309.022 77.8161 302.492 88.2846 293.268 91.5668C292.715 91.7741 292.439 92.3614 292.646 92.8797C292.784 93.2943 293.199 93.5707 293.613 93.5707Z" fill="#302F3D"/>
<path d="M545.825 26.5443C546.102 26.5443 546.378 26.4406 546.551 26.2333C546.965 25.8187 546.931 25.1623 546.516 24.7822C546.102 24.3676 536.186 14.8665 519.706 11.8261C519.153 11.7225 518.6 12.1025 518.497 12.6553C518.393 13.2081 518.773 13.7609 519.326 13.8646C535.15 16.7667 544.962 26.1642 545.031 26.2679C545.307 26.4406 545.583 26.5443 545.825 26.5443Z" fill="#302F3D"/>
<path d="M237.539 134.684C237.988 134.684 238.403 134.408 238.541 133.959C243.102 118.584 267.77 117.099 268.012 117.064C268.599 117.029 269.014 116.546 268.979 115.958C268.945 115.371 268.461 114.956 267.874 114.991C267.597 114.991 261.275 115.371 254.192 117.755C244.691 120.968 238.61 126.358 236.503 133.337C236.33 133.89 236.641 134.477 237.194 134.615C237.332 134.684 237.436 134.684 237.539 134.684Z" fill="url(#paint4_linear)"/>
<path d="M558.643 131.609C559.092 131.609 559.472 131.333 559.611 130.884C563.549 118.93 565.173 107.286 564.448 96.2305C563.86 87.3858 561.753 78.9211 558.229 71.0438C552.182 57.6386 544.098 50.7632 543.752 50.4523C543.303 50.0722 542.647 50.1413 542.301 50.5905C541.921 51.0396 541.99 51.696 542.439 52.0415C542.474 52.0761 544.512 53.8036 547.207 57.0858C549.729 60.1261 553.357 65.2049 556.397 71.9767C559.818 79.6121 561.856 87.8349 562.409 96.4032C563.1 107.148 561.511 118.515 557.676 130.193C557.503 130.746 557.779 131.333 558.332 131.506C558.401 131.609 558.54 131.609 558.643 131.609Z" fill="url(#paint5_linear)"/>
<path d="M301.905 193.419C302.009 193.419 302.078 193.419 302.182 193.419C319.836 193.28 333.967 184.747 347.649 176.524C367.791 164.397 388.59 151.821 422.069 164.017C422.621 164.224 423.209 163.948 423.382 163.395C423.554 162.842 423.312 162.255 422.76 162.082C388.383 149.575 367.135 162.393 346.578 174.762C332.516 183.226 319.249 191.242 302.182 191.38C302.112 191.38 302.009 191.38 301.94 191.38C287.774 191.38 281.106 181.672 281.037 181.603C280.726 181.119 280.07 181.015 279.586 181.326C279.102 181.637 278.999 182.294 279.31 182.777C279.586 183.157 286.6 193.419 301.905 193.419Z" fill="url(#paint6_linear)"/>
<path d="M47.0328 305.291L54.9101 303.322C54.4955 301.663 54.6682 300.316 54.7028 300.247C54.7719 299.694 55.3247 299.314 55.8774 299.383C56.4302 299.452 56.8103 300.005 56.7412 300.558C56.7412 300.558 56.3957 303.011 57.9504 305.015C59.1251 306.535 61.0944 307.468 63.7893 307.779C64.3421 307.848 64.7567 308.366 64.6876 308.919C64.6185 309.472 64.1694 309.852 63.6511 309.852C63.6166 309.852 63.5475 309.852 63.5475 309.852C60.2653 309.472 57.8123 308.262 56.2921 306.258C56.0502 305.948 55.8429 305.602 55.6702 305.257L47.5165 307.295C47.4474 307.33 47.3437 307.33 47.2746 307.33C46.8255 307.33 46.4109 307.019 46.2727 306.535C46.1345 305.982 46.48 305.429 47.0328 305.291Z" fill="#302F3D"/>
<path d="M27.754 293.889C27.9958 293.371 28.4104 293.025 28.9286 292.852C30.5179 292.369 33.0056 293.958 36.9442 296.584C38.879 297.862 42.7485 300.453 43.9232 300.384C43.6813 299.14 40.7101 295.547 38.7408 293.129C33.9038 287.221 30.7944 283.144 31.4163 280.484C31.6927 279.274 32.3837 278.791 32.9365 278.618C33.5238 278.445 34.1111 278.48 34.6985 278.687C34.6294 278.445 34.6293 278.203 34.6293 277.996C34.6639 277.27 34.9749 276.856 35.2167 276.614C37.6697 274.334 40.8137 277.374 46.549 282.937C47.7236 284.077 49.0366 285.39 50.4876 286.737C52.0078 288.154 55.1519 291.194 57.1902 293.163C56.0501 286.253 56.3611 281.52 58.0886 279.378C58.9177 278.341 59.8506 278.203 60.2997 278.203C61.6817 278.203 62.2 279.551 64.8948 290.054C66.1041 294.753 67.3478 299.659 68.4189 302.215C69.4899 304.841 78.6456 317.348 90.3579 329.889C98.6498 338.769 114.301 354.04 125.702 356.527C131.921 357.875 138.451 356.942 145.05 353.694C150.751 350.93 156.659 346.37 162.636 340.185C154.102 330.891 151.891 330.58 151.476 330.615C149.991 330.822 147.537 331.997 145.154 333.103C140.317 335.383 135.272 337.732 133.165 335.141C132.716 334.588 132.578 333.932 132.785 333.241C133.372 331.133 137.898 328.784 142.182 327.022C137.173 327.436 131.23 327.92 129.814 328.024C129.123 328.093 128.501 328.127 127.913 328.127C125.633 328.127 124.044 327.644 123.249 326.607C122.316 325.536 122.558 324.396 122.593 324.258C122.662 324.085 122.731 323.912 122.869 323.774C123.733 322.876 125.046 322.116 126.6 321.494C126.186 321.217 125.84 320.837 125.564 320.388C125.253 319.766 125.046 318.73 125.84 317.279C128.051 313.34 142.493 311.889 149.541 311.405C147.848 310.334 145.603 308.883 143.426 307.363C134.65 301.352 134.374 300.039 134.961 298.968C135.169 298.553 135.652 298 136.62 297.758C139.349 297.102 145.983 299.486 156.382 304.772C154.309 297.931 154.689 293.854 157.522 292.61C157.799 292.472 158.282 292.369 158.835 292.61C159.803 293.025 161.392 294.545 164.881 302.733C166.436 306.43 167.784 310.023 168.198 311.164C170.133 312.235 172.102 313.375 174.21 314.584C176.179 315.724 178.183 316.899 180.118 318.074C183.573 313.064 188.824 306.43 194.836 299.279C194.87 299.14 194.94 299.037 195.043 298.933C195.25 298.691 196.114 297.724 197.427 296.204C204.821 287.497 213.009 278.307 220.092 270.464C233.601 255.539 245.797 242.617 248.457 239.819C248.491 239.784 248.526 239.715 248.561 239.68L240.856 208.033L239.543 202.747C238.057 202.989 236.572 203.092 235.121 203.092C230.387 203.092 225.965 201.849 221.992 199.43C214.978 195.077 212.387 186.163 214.391 173.656C213.285 174.209 212.283 174.382 211.454 174.382C211.074 174.382 210.694 174.347 210.418 174.278C208.31 173.898 206.686 172.481 206.03 171.238C205.374 169.959 205.512 168.232 206.41 166.988C206.997 166.159 208.448 164.881 211.42 165.433C215.151 166.159 216.775 163.326 217.189 162.428C217.189 162.358 217.224 162.289 217.224 162.186C220.506 152.235 225.792 142.181 231.389 135.133C231.389 133.406 231.562 131.713 231.873 130.089C233.324 122.799 238.783 113.713 256.611 111.881C296.757 107.735 312.235 84.5873 322.428 69.2472C323.188 68.1417 323.913 67.0706 324.604 66.0341C334.796 51.1087 351.829 26.1293 407.074 29.6534C429.98 31.1045 442.004 25.5074 453.682 20.1177C461.49 16.49 468.883 13.035 478.937 12.1367C490.166 11.1348 503.122 13.4151 519.74 19.3576C536.151 25.231 550.593 35.285 561.511 48.4484C571.668 60.6789 578.578 75.2243 581.446 90.4607C583.795 102.899 583.312 115.44 580.064 126.634C576.574 138.588 570.217 148.642 561.165 156.554C546.309 169.51 528.481 176.662 506.715 178.424C487.575 179.979 467.985 177.318 449.017 174.727C440.138 173.518 431.777 172.378 423.554 171.652C398.16 169.476 383.442 177.457 367.826 185.921C356.355 192.14 344.47 198.601 327.437 202.056C321.668 203.231 316.381 203.714 311.614 203.714C298.692 203.714 289.364 200.087 283.317 196.459C279.033 193.937 275.889 191.173 273.782 188.962L286.461 226.966C287.394 226.759 303.771 223.373 325.399 223.719C338.389 223.96 350.758 225.515 362.091 228.314C376.29 231.838 388.936 237.366 399.68 244.759C423.658 261.274 442.695 287.843 451.85 317.659C456.687 333.448 458.657 349.514 457.62 365.406C456.515 382.578 451.954 399.092 444.042 414.501C436.13 429.876 426.802 443.039 416.299 453.612C406.556 463.389 395.707 471.025 384.064 476.311C371.315 482.115 357.737 485.017 343.883 485.017C339.357 485.017 334.796 484.706 330.236 484.084L305.671 507.025C305.533 507.163 305.36 507.267 305.153 507.302C305.084 507.302 304.704 507.371 304.082 507.371C301.18 507.371 292.888 505.92 285.874 491.098C281.072 480.94 276.649 480.526 271.571 480.007C268.15 479.662 264.315 479.282 260.135 476.034C254.33 471.543 255.47 465.462 256.403 460.556C257.302 455.754 257.682 452.713 254.365 450.951C245.797 446.425 232.84 439.584 231.735 422.068C227.658 418.06 223.788 414.087 220.195 410.252C220.195 410.425 220.23 410.563 220.23 410.736C220.714 412.774 221.232 414.812 221.75 416.851C222.856 421.066 224.065 425.177 225.412 429.22C226.725 433.02 228.107 436.82 229.385 440.206C235.363 455.374 242.998 469.09 252.188 481.113C263.14 495.451 276.304 507.509 291.367 516.906C291.506 516.976 291.644 517.079 291.713 517.217C291.955 517.39 292.128 517.667 292.128 517.978C292.128 518.323 291.989 518.668 291.713 518.876C267.597 537.636 248.388 547.068 234.326 547.068C228.867 547.068 224.203 545.652 220.264 542.784C217.259 540.538 215.497 537.153 215.047 532.696C213.665 518.738 225.792 494.691 244.553 473.996C240.476 467.881 236.745 461.385 233.393 454.544C227.934 455.235 222.441 455.546 216.913 455.546C206.272 455.546 195.596 454.268 184.92 451.815C162.912 446.598 141.975 436.129 122.765 420.617C86.3501 391.215 55.1864 332.93 44.9252 313.789C43.2668 310.714 41.9539 308.261 41.6429 307.881C40.8829 306.879 38.7062 305.29 36.3914 303.632C30.2761 299.244 26.683 296.411 27.754 293.889ZM158.144 294.614C156.555 295.651 156.866 299.935 159.008 306.119C161.012 307.156 163.154 308.33 165.4 309.574C162.186 301.11 159.284 295.478 158.144 294.614ZM173.173 316.381C153.618 305.048 140.455 298.968 137.104 299.797C137.104 299.797 137.103 299.797 137.069 299.797C138.52 301.628 146.328 307.052 153.342 311.371C153.826 311.647 153.998 312.304 153.687 312.787C153.549 313.029 153.307 313.202 153.031 313.271C152.962 313.306 152.893 313.306 152.789 313.306C152.72 313.306 146.881 313.582 140.8 314.377C130.09 315.793 128.017 317.624 127.602 318.315C127.395 318.661 127.188 319.145 127.361 319.456C127.602 319.905 128.604 320.25 129.226 320.319C129.399 320.354 129.572 320.423 129.71 320.492C138.347 318.246 150.923 318.592 151.614 318.626C152.202 318.661 152.651 319.11 152.616 319.697C152.582 320.25 152.098 320.734 151.545 320.699C145.534 320.527 129.226 320.941 124.631 324.949C124.666 325.052 124.7 325.156 124.804 325.26C125.08 325.571 126.117 326.296 129.641 325.951C132.128 325.674 148.781 324.396 149.472 324.327C150.025 324.292 150.543 324.707 150.578 325.294C150.578 325.536 150.509 325.743 150.405 325.951C150.267 326.158 150.094 326.296 149.852 326.365C149.783 326.365 145.948 327.644 142.113 329.302C135.376 332.204 134.789 333.621 134.754 333.794C135.825 335.141 140.904 332.757 144.255 331.168C146.881 329.959 149.369 328.784 151.165 328.507C152.962 328.266 156.52 329.82 168.371 343.398C171.308 342.12 174.002 340.427 176.352 338.389C176.352 338.32 176.352 338.285 176.352 338.216C176.352 333.275 179.703 329.129 184.264 327.989C185.197 326.089 185.68 324.638 185.888 323.878C181.742 321.425 177.492 318.868 173.173 316.381ZM178.39 338.25C178.39 342.915 182.156 346.715 186.751 346.715C191.381 346.715 195.112 342.915 195.112 338.25C195.112 337.49 195.009 336.73 194.801 336.005C194.663 335.797 194.594 335.59 194.594 335.348C193.419 332.101 190.344 329.786 186.751 329.786C182.156 329.786 178.39 333.586 178.39 338.25ZM218.848 286.564C218.399 286.011 217.88 285.735 217.259 285.666C213.596 285.32 202.851 294.234 196.771 300.108C190.621 307.398 185.335 314.066 181.845 319.075C194.421 326.607 205.892 333.966 212.594 338.492C213.873 323.083 216.74 309.298 220.195 297.447C220.506 294.96 220.748 288.914 218.848 286.564ZM287.083 228.936L288.051 231.803C288.223 232.356 287.947 232.943 287.394 233.116C287.291 233.185 287.187 233.185 287.083 233.185C286.669 233.185 286.254 232.909 286.116 232.46L270.016 184.263C269.843 183.71 270.12 183.123 270.672 182.95C270.776 182.915 270.845 182.915 270.949 182.915C273.782 182.466 275.717 181.05 276.511 178.804C277.513 176.075 276.684 172.343 274.542 169.925C273.713 168.992 271.985 167.472 269.739 167.99C265.697 168.888 264.281 172.274 263.831 174.934C263.624 176.075 262.899 177.077 261.862 177.56C260.826 178.078 259.616 178.044 258.614 177.491C250.737 173.207 243.205 165.606 237.988 156.658C234.326 150.37 232.149 144.082 231.562 138.312C226.725 144.98 222.234 153.825 219.297 162.6C219.297 162.669 219.262 162.738 219.262 162.842C218.537 164.846 215.911 168.405 211.04 167.472C209.623 167.195 208.621 167.437 208.068 168.197C207.619 168.854 207.585 169.752 207.861 170.236C208.207 170.892 209.278 171.963 210.798 172.24C212.214 172.516 213.631 171.998 215.082 170.754C215.497 170.374 216.153 170.408 216.533 170.858C216.671 170.996 216.74 171.169 216.775 171.341C216.844 171.514 216.879 171.756 216.844 171.963C213.7 188.029 218.502 194.766 223.097 197.634C236.641 206.029 251.186 196.148 251.325 196.044C251.808 195.699 252.465 195.802 252.776 196.286C253.052 196.701 253.052 197.219 252.741 197.564C252.154 198.463 245.486 209.035 246.902 223.926V223.96L250.737 239.68V239.715C250.737 239.784 250.772 239.819 250.772 239.888C250.772 239.922 250.772 239.957 250.772 239.957C250.772 240.026 250.772 240.095 250.737 240.164C250.737 240.164 250.737 240.164 250.737 240.199C250.703 240.371 250.599 240.544 250.495 240.682C250.461 240.717 250.392 240.786 250.253 240.924C249.321 242.03 246.211 246.038 242.134 252.637C253.985 259.166 265.766 260.859 277.099 257.577C297.621 251.669 310.992 231.25 314.17 225.93C299.383 226.517 288.845 228.59 287.083 228.936ZM316.589 225.826C315.967 226.966 312.477 233.047 306.431 239.957C300.35 246.901 290.4 255.953 277.651 259.616C273.678 260.756 269.67 261.343 265.628 261.343C257.543 261.343 249.321 259.063 241.029 254.399C239.854 256.368 238.61 258.545 237.332 260.928C238.645 261.827 243.931 265.143 252.016 267.113C260.618 269.186 274.231 270.084 290.331 262.483C305.464 255.366 314.136 245.485 318.765 238.437C322.531 232.667 324.293 227.83 324.915 225.792C322.013 225.757 319.249 225.757 316.589 225.826ZM442.176 413.534C449.95 398.401 454.442 382.128 455.513 365.268C456.515 349.617 454.58 333.794 449.812 318.246C441.9 292.472 426.526 269.22 406.936 252.878C400.51 262.31 406.21 286.53 396.467 285.39C385.757 284.111 395.811 268.806 389.039 245.934C388.348 243.343 386.206 240.786 385.377 238.851C378.087 235.293 370.141 232.425 361.607 230.317C350.931 227.657 339.288 226.172 327.023 225.826C326.504 227.588 324.777 232.943 320.493 239.508C315.759 246.798 306.777 257.024 291.16 264.383C281.072 269.117 271.916 270.671 264.281 270.671C259.271 270.671 254.883 270.015 251.394 269.082C243.309 267.147 238.023 263.934 236.33 262.794C235.674 264.072 234.983 265.385 234.326 266.733C230.422 274.645 226.034 285.079 222.303 297.758C222.268 297.897 222.234 298.035 222.234 298.138C222.199 298.277 222.165 298.415 222.096 298.518C218.641 310.473 215.807 324.327 214.598 339.874C215.082 340.185 215.531 340.496 215.911 340.773C217.397 341.809 219.124 343.053 220.955 344.366C229.835 350.757 243.274 360.397 257.854 367.03C269.048 372.109 279.31 374.666 288.5 374.666C293.44 374.666 298.07 373.94 302.389 372.455C315.241 368.032 322.324 357.771 323.395 341.982C324.19 330.028 321.08 319.248 321.046 319.145C320.873 318.592 321.184 318.039 321.737 317.866C322.289 317.693 322.842 318.004 323.015 318.557C323.153 319.006 326.263 329.751 325.433 342.051C325.157 346.335 324.397 350.274 323.222 353.832C326.504 353.66 337.491 353.28 350.896 355.249C365.684 357.391 386.448 362.85 401.65 376.773C423.071 396.397 432.468 420.202 434.748 426.697C437.34 422.517 439.827 418.129 442.176 413.534ZM256.231 441.727C259.582 444.525 263.175 447.462 266.941 450.398C282.454 462.456 296.688 471.232 309.057 476.518C311.924 477.658 314.723 478.625 317.452 479.351C339.875 485.432 362.643 483.739 383.2 474.41C394.602 469.228 405.243 461.731 414.813 452.126C419.65 447.289 424.211 441.865 428.529 435.922C428.288 434.851 426.975 429.289 423.071 420.893C419.028 412.221 411.358 398.643 397.711 383.407C384.168 368.274 364.405 361.641 350.24 358.704C335.626 355.698 323.775 355.94 322.462 355.974C320.873 359.982 318.662 363.472 315.863 366.374C323.74 374.597 347.511 373.284 345.852 382.992C343.606 392.873 330.65 387.207 308.02 379.71C301.732 377.637 295.479 376.808 289.744 376.704C289.294 376.704 288.88 376.739 288.431 376.739C278.964 376.739 268.392 374.113 256.991 368.896C242.203 362.159 228.694 352.45 219.746 346.024C217.915 344.711 216.222 343.502 214.736 342.466C211.42 340.185 205.512 336.247 198.222 331.617C197.911 332.515 197.462 333.828 196.805 335.383C197.047 336.281 197.185 337.249 197.185 338.25C197.185 343.744 192.97 348.27 187.65 348.754C184.506 351.552 181.016 353.314 177.216 354.005C186.129 364.992 194.87 376.67 199.846 383.338C209.45 396.294 231.458 420.617 256.231 441.727ZM212.422 440.034C219.193 434.678 218.848 419.511 218.226 411.979C218.122 411.427 218.053 410.943 217.95 410.425C217.708 409.319 217.431 408.213 217.189 407.142C209.036 398.332 202.437 390.455 198.118 384.616C194.905 380.297 190.137 373.871 184.713 366.892C186.613 371.073 188.893 376.566 191.105 383.338C195.32 396.259 199.949 416.022 200.087 440.552C205.304 442.556 209.45 442.383 212.422 440.034ZM31.6926 297.378C33.2819 298.864 35.4931 300.453 37.6352 302.008C40.1573 303.839 42.3339 305.428 43.3013 306.638C43.7159 307.156 44.6142 308.814 46.7908 312.856C56.983 331.893 88.0085 389.902 124.113 419.027C143.115 434.333 163.741 444.698 185.438 449.811C189.515 450.779 193.627 451.539 197.703 452.126L198.014 443.661C198.291 417.991 193.523 397.365 189.204 384.063C183.953 367.894 178.217 358.738 178.148 358.635C178.079 358.531 178.045 358.462 178.01 358.358C175.246 354.903 172.448 351.483 169.718 348.235C167.576 345.713 165.711 343.537 164.018 341.705C159.25 346.611 154.516 350.516 149.852 353.349C158.593 356.562 170.34 357.425 169.269 363.921C167.3 372.558 155.968 367.583 136.171 361.053C133.165 360.051 130.159 359.395 127.222 358.98C127.222 358.98 127.395 358.98 127.671 358.946C126.842 358.842 126.048 358.704 125.253 358.531C113.886 356.078 99.168 342.362 88.8377 331.271C77.3327 318.937 67.7625 306.085 66.4841 302.975C65.3785 300.246 64.1002 295.305 62.8909 290.503C61.889 286.599 60.6797 281.831 59.9888 280.38C59.8851 280.449 59.816 280.553 59.7124 280.656C58.9869 281.589 57.4667 285.044 59.9542 296.618C60.0924 297.206 59.7123 297.758 59.1595 297.862C58.5722 298 58.0195 297.62 57.9158 297.067C57.8812 296.895 57.8467 296.756 57.8122 296.618C57.7085 296.584 57.6394 296.515 57.5703 296.445C57.5358 296.376 51.3514 290.399 49.0711 288.257C47.62 286.91 46.2726 285.597 45.0979 284.457C41.1592 280.656 37.7734 277.374 36.6678 278.1C36.6678 278.341 36.8751 279.447 39.3972 282.695C41.6084 285.562 45.0979 289.501 50.0731 294.649C50.4531 295.063 50.4531 295.72 50.0385 296.1C49.6239 296.48 48.9675 296.48 48.5874 296.065C43.5086 290.779 38.7062 285.528 36.2878 281.831C36.1495 281.796 35.9768 281.727 35.8386 281.624C35.1476 281.036 34.0075 280.449 33.6274 280.587C33.5929 280.587 33.5238 280.691 33.4547 280.933C33.0056 282.833 37.4279 288.223 40.3646 291.816C44.1651 296.445 46.2726 299.14 46.0307 300.868C45.9616 301.351 45.7198 301.766 45.3052 302.042C43.4741 303.252 40.5374 301.421 35.8386 298.277C33.9384 296.998 30.7598 294.891 29.7233 294.822C29.7579 295.098 30.0342 295.858 31.6926 297.378Z" fill="#302F3D"/>
<path d="M252.119 481.148C242.929 469.125 235.328 455.409 229.316 440.242C228.038 436.856 226.656 433.055 225.343 429.255C224.03 425.213 222.786 421.101 221.681 416.886C221.163 414.848 220.644 412.809 220.161 410.771C220.161 410.598 220.126 410.425 220.126 410.287C223.719 414.122 227.589 418.061 231.666 422.103C232.771 439.62 245.727 446.461 254.296 450.987C257.612 452.749 257.232 455.789 256.334 460.591C255.401 465.497 254.261 471.578 260.065 476.07C264.246 479.317 268.081 479.697 271.501 480.043C276.58 480.561 281.003 480.976 285.805 491.133C291.886 504.02 298.968 506.784 302.596 507.302C298.623 510.688 294.719 513.867 290.987 516.804C276.062 507.406 263.002 495.383 252.119 481.148Z" fill="url(#paint7_linear)"/>
<path d="M344.988 461.524C350.689 461.524 356.148 460.626 360.985 458.863C361.745 458.587 362.436 458.311 363.092 458.034C366.824 456.445 367.929 451.643 365.269 448.568C363.542 446.564 360.743 445.907 358.29 446.944C357.703 447.22 357.012 447.462 356.286 447.738C351.069 449.501 345.092 449.915 338.562 449.017C335.245 448.533 332.205 450.848 331.721 454.165C331.238 457.481 333.552 460.522 336.869 461.006C339.633 461.351 342.363 461.524 344.988 461.524Z" fill="#302F3D"/>
<path d="M154.966 428.01C157.522 428.01 159.906 426.387 160.736 423.83C161.772 420.651 160.01 417.265 156.866 416.229C156.693 416.16 147.296 412.981 139.591 405.277C137.242 402.927 133.407 402.927 131.057 405.277C128.708 407.626 128.708 411.461 131.057 413.81C140.973 423.726 152.686 427.561 153.169 427.734C153.722 427.907 154.344 428.01 154.966 428.01Z" fill="#302F3D"/>
<path d="M450.849 272.606C451.159 272.606 451.47 272.468 451.678 272.192C467.951 249.804 492.101 234.256 492.343 234.118C492.826 233.807 492.964 233.185 492.654 232.702C492.343 232.218 491.721 232.08 491.237 232.391C490.995 232.563 466.534 248.318 450.019 271.017C449.674 271.466 449.778 272.123 450.261 272.468C450.434 272.537 450.641 272.606 450.849 272.606Z" fill="white"/>
<path d="M531.038 271.397C524.379 271.397 518.98 265.998 518.98 259.339C518.98 252.68 524.379 247.281 531.038 247.281C537.697 247.281 543.096 252.68 543.096 259.339C543.096 265.998 537.697 271.397 531.038 271.397Z" fill="#302F3D"/>
<path d="M531.038 272.917C538.501 272.917 544.582 266.836 544.582 259.374C544.582 251.911 538.501 245.83 531.038 245.83C523.575 245.83 517.495 251.911 517.495 259.374C517.495 266.836 523.575 272.917 531.038 272.917ZM531.038 248.801C536.842 248.801 541.576 253.535 541.576 259.339C541.576 265.143 536.842 269.877 531.038 269.877C525.234 269.877 520.5 265.143 520.5 259.339C520.5 253.535 525.234 248.801 531.038 248.801Z" fill="#302F3D"/>
<path d="M450.052 242.949C447.39 241.846 446.126 238.795 447.229 236.133C448.332 233.471 451.384 232.206 454.046 233.309C456.708 234.412 457.972 237.464 456.869 240.126C455.766 242.788 452.714 244.052 450.052 242.949Z" fill="#302F3D"/>
<path d="M452.058 243.999C455.305 243.999 457.931 241.373 457.931 238.125C457.931 234.878 455.305 232.252 452.058 232.252C448.81 232.252 446.184 234.878 446.184 238.125C446.184 241.373 448.844 243.999 452.058 243.999ZM452.058 233.565C454.58 233.565 456.618 235.603 456.618 238.125C456.618 240.648 454.58 242.686 452.058 242.686C449.535 242.686 447.497 240.648 447.497 238.125C447.497 235.603 449.57 233.565 452.058 233.565Z" fill="#302F3D"/>
<path d="M173.381 435.543C176.076 435.543 178.529 433.746 179.22 431.017C180.049 427.769 178.114 424.487 174.901 423.658L172.448 423.036C169.2 422.206 165.918 424.141 165.089 427.354C164.26 430.602 166.194 433.884 169.407 434.713L171.86 435.335C172.379 435.508 172.897 435.543 173.381 435.543Z" fill="#302F3D"/>
<path d="M417.888 55.2205C413.499 55.2205 409.942 51.6627 409.942 47.274C409.942 42.8854 413.499 39.3276 417.888 39.3276C422.277 39.3276 425.834 42.8854 425.834 47.274C425.834 51.6627 422.277 55.2205 417.888 55.2205Z" fill="url(#paint8_linear)"/>
<path d="M398.506 44.0611C396.35 44.0611 394.602 42.3132 394.602 40.157C394.602 38.0009 396.35 36.2529 398.506 36.2529C400.662 36.2529 402.41 38.0009 402.41 40.157C402.41 42.3132 400.662 44.0611 398.506 44.0611Z" fill="url(#paint9_linear)"/>
<path d="M401.615 506.819C409.562 506.612 419.063 503.26 429.877 496.903C437.892 492.204 443.697 487.471 443.731 487.437C444.18 487.091 444.249 486.435 443.869 485.985C443.524 485.536 442.867 485.467 442.418 485.847C442.176 486.02 419.685 504.297 401.581 504.78C400.993 504.78 400.544 505.264 400.579 505.851C400.579 506.404 401.062 506.819 401.615 506.819Z" fill="#302F3D"/>
<path d="M238.61 496.315C243.274 490.442 247.8 485.57 250.599 482.633L251.877 484.292C244.622 491.789 225.723 512.726 225.447 526.857C225.447 527.41 224.963 527.859 224.41 527.859C223.823 527.859 223.374 527.375 223.408 526.822C223.547 519.152 228.66 508.891 238.61 496.315Z" fill="white"/>
<path d="M17.0092 50.8329C20.1187 47.9653 27.3741 46.3069 33.3512 50.1073C39.3282 53.9078 45.8927 58.8138 52.9754 67.3476C52.9754 67.3476 67.2443 58.7793 75.398 45.9959C83.5517 33.2126 86.0738 29.4812 91.2563 17.8726C91.2563 17.8726 100.274 41.7118 91.5672 62.787C91.5672 62.787 122.524 45.5813 131.23 37.324C131.23 37.324 134.547 51.7657 130.574 66.6221L118.896 68.6259L127.948 72.7719C127.948 72.7719 122.731 85.1061 110.88 92.1542C99.03 99.2023 88.1468 98.5804 88.1468 98.5804L128.293 125.184C128.293 125.184 137.622 129.537 135.169 132.854C132.681 136.136 123.94 146.19 109.015 141.353L84.5191 117.617C84.5191 117.617 65.966 116.892 57.7777 115.302C49.5895 113.679 43.5088 108.082 39.5356 101.275C35.5969 94.469 31.9001 87.5591 32.0037 82.7222C32.1074 77.8852 28.5142 68.9023 25.5084 67.7622C22.5026 66.622 15.489 65.3437 14.798 58.9175C14.1071 52.4913 17.0092 50.8329 17.0092 50.8329Z" fill="url(#paint10_linear)"/>
<path d="M108.911 158.109L35.6659 151.337L34.3531 193.142L107.598 199.569L108.911 158.109Z" fill="url(#paint11_linear)"/>
<path d="M49.9004 152.651L108.911 158.109L108.22 180.221C84.0699 181.465 60.6799 162.739 49.9004 152.651Z" fill="white"/>
<path d="M34.0076 194.11C33.9731 194.11 33.904 194.075 33.8694 194.041C33.8694 194.041 33.8694 194.041 33.8349 194.041C33.7312 194.006 33.6621 193.937 33.5585 193.868C33.3166 193.626 33.213 193.281 33.2821 192.97L34.595 151.51C34.5604 151.372 34.5949 151.234 34.6295 151.096C34.664 150.888 34.8023 150.681 34.9405 150.543C34.975 150.508 35.0096 150.508 35.0441 150.474L66.6225 120.415C67.0371 120.035 67.6244 120.035 68.039 120.381L109.464 157.245C109.499 157.28 109.533 157.314 109.602 157.349C109.637 157.384 109.637 157.384 109.671 157.418C109.844 157.625 109.948 157.867 109.948 158.144L108.635 199.603C108.635 199.638 108.635 199.672 108.635 199.707C108.635 199.845 108.566 199.949 108.497 200.052L108.462 200.087C108.427 200.121 108.427 200.156 108.393 200.191C108.324 200.26 108.289 200.329 108.22 200.398C108.082 200.501 107.944 200.571 107.771 200.571C107.702 200.571 107.667 200.605 107.598 200.605C107.564 200.605 107.564 200.605 107.495 200.605L34.2495 194.179C34.2149 194.179 34.1804 194.179 34.1804 194.179C34.1458 194.179 34.1458 194.179 34.1113 194.179C34.0767 194.144 34.0422 194.11 34.0076 194.11ZM74.2579 179.012C75.9163 177.871 80.7532 174.589 86.1084 171.445C86.3848 171.307 86.6267 171.134 86.9031 170.996L105.836 158.904L39.1555 152.719L74.2579 179.012ZM107.287 176.559C107.253 176.455 107.253 176.351 107.253 176.248L107.322 174.486C107.322 173.587 107.287 172.447 107.149 171.273C106.942 169.58 106.32 166.712 104.558 166.401C101.448 165.848 95.0222 168.785 88.7688 172.309L106.7 196.563L107.287 176.559ZM86.9721 173.38L74.8107 181.154C74.638 181.257 74.4652 181.326 74.2579 181.326C74.0506 181.326 73.8433 181.257 73.6705 181.154L59.7471 170.685L36.7716 192.279L105.422 198.325L86.9721 173.38ZM57.8469 169.649L51.5243 164.812C51.0751 164.501 50.5914 164.155 50.1077 163.844C44.7525 160.355 40.572 158.904 38.3954 159.733C37.2898 160.113 36.6334 161.149 36.3916 162.842C36.3916 162.911 36.357 162.946 36.357 163.015L35.4932 190.689L57.8469 169.649ZM67.4171 122.558L38.0499 150.508L105.802 156.796L67.4171 122.558Z" fill="#302F3D"/>
<path d="M24.0228 53.8389C25.7848 53.8389 27.2014 55.2554 27.2014 57.0174C27.2014 58.7795 25.7848 60.196 24.0228 60.196C22.2608 60.196 20.8443 58.7795 20.8443 57.0174C20.8443 55.2554 22.2608 53.8389 24.0228 53.8389Z" fill="#302F3D"/>
<path d="M6.98976 62.0961L13.8306 55.9463C14.0379 54.0461 14.7289 52.3186 15.869 50.902C18.5639 47.5507 23.4008 46.307 29.5161 47.3434C37.808 48.7945 47.5855 58.7794 53.7699 66.1384L55.1865 65.3092C60.8871 61.3015 79.7512 46.2033 90.5653 16.7325C90.7035 16.3179 91.0835 16.0415 91.5327 16.0415C91.9818 16.0415 92.3618 16.3179 92.5 16.7325C92.6037 17.0089 94.8494 23.4351 96.0932 32.3489C97.1297 40.0535 97.5443 50.9711 93.9511 60.7487C113.057 50.142 130.332 36.8404 130.608 36.6331C130.885 36.3912 131.23 36.3567 131.576 36.4603C131.887 36.564 132.163 36.8404 132.232 37.1859C132.37 37.7386 135.514 51.0748 131.576 66.9676C131.472 67.3477 131.161 67.6586 130.746 67.7277L121.902 69.1788L128.328 71.8737C128.846 72.081 129.088 72.6337 128.915 73.152C126.842 79.1982 121.176 85.6935 116.754 89.2176C107.667 96.3693 98.5808 98.8914 91.3254 99.4788L134.858 128.466C136.447 129.502 136.965 131.61 136.033 133.268C133.027 138.693 127.568 142.113 120.312 143.219C118.447 143.495 116.719 143.599 115.234 143.599C112.781 143.599 110.984 143.357 110.431 143.253C110.259 143.253 110.051 143.219 109.878 143.115L108.427 142.182C98.6153 136.067 90.3925 128.12 83.8972 118.585C83.2408 118.585 82.5843 118.585 81.8242 118.619C78.0238 118.619 73.1868 118.481 68.1771 117.997L68.419 119.552C70.1119 119.552 71.4593 118.93 71.4939 118.896C72.0121 118.619 72.634 118.827 72.8759 119.345C73.1523 119.863 72.945 120.485 72.4267 120.727C72.3576 120.761 71.3211 121.245 69.8355 121.487C72.2885 122.385 74.707 121.245 74.8452 121.176C75.3634 120.9 75.9853 121.107 76.2272 121.625C76.5036 122.143 76.2963 122.765 75.778 123.007C75.6744 123.076 73.9815 123.905 71.8048 123.905C70.181 123.905 68.3153 123.456 66.6915 121.901C66.5187 121.763 66.4151 121.591 66.3805 121.383L63.202 118.032C62.9947 117.825 62.8219 117.548 62.6837 117.272C57.3286 116.374 52.2498 114.957 48.6912 112.642C36.5988 104.938 32.0383 87.5592 28.9979 76.0887C28.0996 72.5992 26.7522 70.699 25.232 69.4897C25.1283 69.4552 25.0938 69.4206 25.0938 69.4206C24.9556 69.3515 24.8519 69.2479 24.7483 69.1442C23.6427 68.4187 22.4335 67.9696 21.2242 67.5204C18.8403 66.6221 16.3873 65.7238 14.9362 62.6144L7.8535 63.9272C7.81895 63.9272 7.74985 63.9272 7.68076 63.9272C7.3007 63.9272 6.95525 63.6854 6.71339 63.3745C6.54065 62.8908 6.64427 62.4071 6.98976 62.0961ZM91.118 62.0616C95.4713 52.2149 95.0567 40.6063 93.9857 32.6253C93.2601 27.3738 92.1546 22.9169 91.3599 20.222C84.5882 37.255 75.2943 49.14 68.5572 56.2227C65.7241 59.194 63.0984 61.5779 60.9217 63.409C62.822 67.1058 66.346 69.1097 71.3557 69.2133C75.087 69.317 78.3693 68.315 78.7838 68.2114C82.8262 66.4839 86.9721 64.4455 91.049 62.2689C91.049 62.1998 91.0835 62.1307 91.118 62.0616ZM16.6982 61.3706C17.7693 63.9963 19.6004 64.6873 21.9498 65.5511C23.2626 66.0348 24.7137 66.5876 26.1302 67.555C26.3721 67.6586 26.6139 67.7623 26.8558 67.9005C29.1361 69.0406 36.046 72.5301 40.883 75.5014C45.1326 78.1617 45.2362 80.6147 44.8907 81.8585C44.5107 83.2405 43.3014 84.3115 42.0231 84.3461C41.1248 84.3806 39.9846 84.1388 38.6027 83.6205C37.6698 83.2405 36.7025 83.3787 35.8733 83.9315C35.0786 84.4843 34.5949 85.348 34.5949 86.3154V87.801V87.8356C37.6353 96.7494 42.1613 105.94 49.7967 110.846C54.3918 113.782 62.5801 115.613 73.5669 116.27C81.2369 116.684 87.8359 116.374 88.9069 116.304C89.1142 116.27 89.2869 116.27 89.4942 116.339C89.5288 116.339 89.5633 116.374 89.5979 116.374C89.7706 116.443 89.9088 116.581 90.0125 116.754L94.4003 121.867L110.95 141.146C113.437 141.491 128.19 142.977 134.201 132.197C134.581 131.506 134.374 130.573 133.683 130.124L106.907 112.262C106.078 113.713 104.869 114.612 103.245 114.922C102.796 115.026 102.312 115.061 101.794 115.061C92.2236 115.061 74.1887 98.926 71.5975 96.5766C71.563 96.5766 71.563 96.5766 71.563 96.5421C71.0447 96.3002 70.8029 95.6783 71.0447 95.1601C71.1138 95.0219 71.2175 94.8837 71.3557 94.78C71.6666 94.5036 72.1503 94.4345 72.5304 94.6418C72.7031 94.7455 72.9104 94.8146 73.1177 94.9182C73.8432 95.1946 75.1561 95.6438 76.9182 96.0929C81.306 97.0603 86.5921 97.3367 87.8704 97.4058C88.0432 97.3713 88.1813 97.3713 88.3541 97.4058C95.1603 97.3022 104.351 95.5056 113.679 88.7684L106.043 87.1791C105.491 87.0409 105.145 86.4881 105.249 85.9353C105.387 85.3825 105.94 85.0371 106.493 85.1407L115.856 87.11C117.099 86.0735 118.447 84.7952 119.76 83.3787L100.446 78.8872C99.8936 78.749 99.5482 78.1962 99.6864 77.6434C99.8246 77.0906 100.377 76.7452 100.93 76.8834L121.314 81.6166C123.456 79.0254 125.391 76.1233 126.566 73.2902L117.687 69.5934C117.272 69.4206 116.996 68.9715 117.065 68.5223C117.134 68.0732 117.479 67.6932 117.929 67.6241L129.675 65.6893C132.474 53.666 131.161 43.0247 130.505 39.1206C127.015 41.7464 117.065 49.0709 105.249 56.3609C94.9531 62.718 85.7974 67.5204 77.8856 70.7681C67.6243 75.1213 61.82 75.5705 59.7816 75.605C59.747 75.605 59.7124 75.605 59.6779 75.605C59.4706 75.605 59.2979 75.6396 59.0906 75.6396C58.6069 75.6396 58.1923 75.3286 58.0541 74.8795C56.1539 72.2537 40.7102 51.3166 29.1706 49.3128C23.8154 48.3799 19.6695 49.3473 17.4929 52.1113C15.5926 54.5298 15.3163 58.0538 16.6982 61.3706Z" fill="#302F3D"/>
<defs>
<linearGradient id="paint0_linear" x1="300" y1="0" x2="300" y2="595.742" gradientUnits="userSpaceOnUse">
<stop stop-color="#00DCFF"/>
<stop offset="1" stop-color="#0082FF"/>
</linearGradient>
<linearGradient id="paint1_linear" x1="207.844" y1="362.712" x2="207.844" y2="454.431" gradientUnits="userSpaceOnUse">
<stop stop-color="#FFE0AD"/>
<stop offset="1" stop-color="#FFBB47"/>
</linearGradient>
<linearGradient id="paint2_linear" x1="318.692" y1="225.475" x2="318.692" y2="428.702" gradientUnits="userSpaceOnUse">
<stop stop-color="#FFE0AD"/>
<stop offset="1" stop-color="#FFBB47"/>
</linearGradient>
<linearGradient id="paint3_linear" x1="186.751" y1="328.75" x2="186.751" y2="347.752" gradientUnits="userSpaceOnUse">
<stop stop-color="#00DCFF"/>
<stop offset="1" stop-color="#0082FF"/>
</linearGradient>
<linearGradient id="paint4_linear" x1="252.718" y1="114.989" x2="252.718" y2="134.684" gradientUnits="userSpaceOnUse">
<stop stop-color="#FFE0AD"/>
<stop offset="1" stop-color="#FFBB47"/>
</linearGradient>
<linearGradient id="paint5_linear" x1="553.335" y1="50.2056" x2="553.335" y2="131.609" gradientUnits="userSpaceOnUse">
<stop stop-color="#FFE0AD"/>
<stop offset="1" stop-color="#FFBB47"/>
</linearGradient>
<linearGradient id="paint6_linear" x1="351.285" y1="156.962" x2="351.285" y2="193.419" gradientUnits="userSpaceOnUse">
<stop stop-color="#FFE0AD"/>
<stop offset="1" stop-color="#FFBB47"/>
</linearGradient>
<linearGradient id="paint7_linear" x1="261.361" y1="410.287" x2="261.361" y2="516.804" gradientUnits="userSpaceOnUse">
<stop stop-color="#FFE0AD"/>
<stop offset="1" stop-color="#FFBB47"/>
</linearGradient>
<linearGradient id="paint8_linear" x1="417.888" y1="39.3276" x2="417.888" y2="55.2205" gradientUnits="userSpaceOnUse">
<stop stop-color="#FFE0AD"/>
<stop offset="1" stop-color="#FFBB47"/>
</linearGradient>
<linearGradient id="paint9_linear" x1="398.506" y1="36.2529" x2="398.506" y2="44.0611" gradientUnits="userSpaceOnUse">
<stop stop-color="#FFE0AD"/>
<stop offset="1" stop-color="#FFBB47"/>
</linearGradient>
<linearGradient id="paint10_linear" x1="75.1358" y1="17.8726" x2="75.1358" y2="142.646" gradientUnits="userSpaceOnUse">
<stop stop-color="#FFE0AD"/>
<stop offset="1" stop-color="#FFBB47"/>
</linearGradient>
<linearGradient id="paint11_linear" x1="71.6321" y1="151.337" x2="71.6321" y2="199.569" gradientUnits="userSpaceOnUse">
<stop stop-color="#00DCFF"/>
<stop offset="1" stop-color="#0082FF"/>
</linearGradient>
</defs>
</svg>
