<svg width="150" height="40" viewBox="0 0 150 40" fill="none" xmlns="http://www.w3.org/2000/svg">
<g clip-path="url(#clip0)">
<path d="M54.9296 17.9617C54.9296 8.06694 42.6333 0 27.4648 0C12.3002 0 0.00395632 8.06694 0.00395632 17.9617C0.00395632 18.2189 0 18.9231 0 19.0141C0 29.5142 10.7454 38.0163 27.4608 38.0163C44.2792 38.0163 54.9296 29.5142 54.9296 19.018C54.9296 18.6501 54.9296 18.4404 54.9296 17.9617Z" fill="#253E8A"/>
<path d="M53.8772 17.9538C53.8772 27.2828 42.0557 34.8473 27.4688 34.8473C12.8857 34.8473 1.0603 27.2828 1.0603 17.9538C1.0603 8.62479 12.8818 1.0603 27.4688 1.0603C42.0557 1.0603 53.8772 8.62479 53.8772 17.9538Z" fill="#00AEEF"/>
<path d="M18.7015 12.6246C18.6857 12.6523 18.4246 12.9253 18.5947 13.1429C19.0101 13.677 20.2999 13.9816 21.6015 13.6888C22.377 13.5148 23.37 12.7235 24.3314 11.9599C25.3759 11.133 26.4085 10.3022 27.449 9.96989C28.5488 9.61778 29.257 9.76812 29.7239 9.91054C30.2342 10.0648 30.8356 10.4011 31.797 11.1212C33.605 12.4782 40.8688 18.8202 42.123 19.9161C43.1358 19.4611 47.6262 17.5265 53.7348 16.1774C53.2046 12.9213 51.2225 9.94219 48.2197 7.5051C44.0339 9.26171 38.9183 10.1796 33.9176 7.73852C33.8938 7.72665 31.1837 6.44876 28.5132 6.50811C24.545 6.60702 22.828 8.32406 21.0081 10.14L18.7015 12.6246Z" fill="white"/>
<path d="M41.8263 20.6085C41.7432 20.5333 33.2845 13.131 31.3657 11.6909C30.258 10.8601 29.6408 10.6464 28.9919 10.5634C28.6557 10.5198 28.1888 10.5831 27.8644 10.6702C26.9742 10.9115 25.8071 11.6909 24.7745 12.5138C23.7023 13.3684 22.6935 14.1715 21.7558 14.3812C20.5571 14.6502 19.0972 14.3337 18.4286 13.8827C18.1595 13.7007 17.9696 13.491 17.8747 13.2774C17.6294 12.7077 18.0844 12.2488 18.1556 12.1736L20.4898 9.64946C20.7628 9.38043 21.0358 9.10744 21.3127 8.84237C20.561 8.94127 19.8647 9.13118 19.1842 9.32108C18.3376 9.55846 17.5265 9.78397 16.7036 9.78397C16.3594 9.78397 14.5197 9.48329 14.1716 9.38834C12.0589 8.81071 10.2073 8.24892 7.43789 6.9552C4.11854 9.42394 1.89904 12.5138 1.25812 15.9163C1.73683 16.0429 2.50436 16.2723 2.82482 16.3436C10.3339 18.0131 12.6721 19.7341 13.0954 20.0902C13.5544 19.5798 14.2151 19.2554 14.9589 19.2554C15.7897 19.2554 16.5374 19.6748 16.9924 20.3197C17.4237 19.9794 18.0171 19.6906 18.7807 19.6906C19.1288 19.6906 19.4889 19.7539 19.8528 19.8805C20.6995 20.1693 21.1386 20.7351 21.3641 21.2454C21.649 21.1188 21.9972 21.0239 22.4086 21.0239C22.8122 21.0239 23.2355 21.1149 23.6588 21.3008C25.0435 21.8943 25.2572 23.2552 25.1345 24.2799C25.2334 24.2681 25.3323 24.2641 25.4312 24.2641C27.0731 24.2641 28.4064 25.6013 28.4064 27.2432C28.4064 27.7496 28.2758 28.2283 28.0503 28.6477C28.4974 28.897 29.6368 29.4667 30.6338 29.3401C31.433 29.2412 31.7376 28.9682 31.8444 28.8139C31.9196 28.7071 31.9987 28.5844 31.9236 28.4974L29.803 26.1434C29.803 26.1434 29.4548 25.815 29.5696 25.6844C29.6883 25.5539 29.9059 25.7398 30.0562 25.8704C31.1363 26.7724 32.4498 28.1294 32.4498 28.1294C32.4735 28.1453 32.5605 28.3154 33.0472 28.4024C33.4665 28.4776 34.2064 28.4341 34.7207 28.0107C34.8513 27.9039 34.9818 27.7694 35.0886 27.6349C35.0807 27.6428 35.0728 27.6507 35.0649 27.6547C35.6069 26.9623 35.0056 26.2581 35.0056 26.2581L32.5329 23.4808C32.5329 23.4808 32.1807 23.1524 32.2994 23.0218C32.4062 22.9071 32.6357 23.0812 32.79 23.2078C33.5734 23.8645 34.6811 24.9723 35.7414 26.0128C35.9472 26.1631 36.8808 26.7408 38.1152 25.9297C38.863 25.4391 39.0133 24.8338 38.9935 24.3788C38.954 23.7735 38.4832 23.3423 38.4832 23.3423L35.1045 19.9438C35.1045 19.9438 34.7484 19.6392 34.875 19.4849C34.9779 19.3543 35.2113 19.5403 35.3616 19.6708C36.4377 20.5729 39.3535 23.2434 39.3535 23.2434C39.3931 23.2711 40.402 23.9911 41.6443 23.1959C42.0874 22.911 42.3722 22.4838 42.396 21.9853C42.4395 21.1228 41.8263 20.6085 41.8263 20.6085Z" fill="white"/>
<path d="M25.4392 24.9169C24.9169 24.9089 24.3433 25.2215 24.2681 25.178C24.2285 25.1503 24.2997 24.9406 24.3512 24.8179C24.4026 24.6993 25.091 22.6222 23.4096 21.9021C22.1238 21.3483 21.3365 21.9694 21.0674 22.2503C20.9962 22.3255 20.9646 22.3176 20.9567 22.2226C20.929 21.8507 20.7628 20.8379 19.6511 20.4976C18.0646 20.011 17.0439 21.1188 16.7827 21.5184C16.668 20.6124 15.9005 19.9121 14.9668 19.9121C13.95 19.9121 13.1231 20.735 13.1231 21.7518C13.1231 22.7686 13.9461 23.5954 14.9668 23.5954C15.4613 23.5954 15.9084 23.3976 16.2407 23.0811C16.2526 23.089 16.2565 23.1088 16.2486 23.1444C16.1695 23.5994 16.0271 25.2571 17.7639 25.9297C18.4602 26.1987 19.0497 25.9969 19.5403 25.6567C19.6867 25.5538 19.7104 25.5973 19.6906 25.7358C19.6273 26.1631 19.7065 27.0731 20.9844 27.5913C21.9576 27.987 22.5313 27.5834 22.9111 27.2353C23.0772 27.0849 23.1208 27.1087 23.1287 27.3421C23.1762 28.5765 24.2008 29.5537 25.4431 29.5537C26.725 29.5537 27.7615 28.5171 27.7615 27.2392C27.7576 25.9534 26.721 24.9287 25.4392 24.9169Z" fill="white"/>
<path d="M42.1546 19.7222C39.5514 17.4473 33.5298 12.2131 31.8959 10.9906C30.9661 10.2904 30.3292 9.91846 29.7713 9.7523C29.5221 9.67713 29.1739 9.59009 28.7269 9.59009C28.3114 9.59009 27.8683 9.66526 27.4015 9.81164C26.3491 10.144 25.2967 10.9788 24.2839 11.7858L24.2325 11.8254C23.2869 12.5771 22.3097 13.3565 21.5699 13.5227C21.2455 13.5939 20.9131 13.6334 20.5847 13.6334C19.7579 13.6334 19.0101 13.3921 18.7332 13.036C18.6857 12.9767 18.7174 12.8817 18.8242 12.7433L18.84 12.7235L21.1307 10.2548C22.9269 8.45858 24.6202 6.76528 28.5251 6.67428C28.5884 6.67428 28.6556 6.67032 28.7189 6.67032C31.1481 6.67032 33.5773 7.75831 33.8503 7.88491C36.1291 8.99664 38.4792 9.56239 40.8411 9.56239C43.3059 9.56239 45.8459 8.95312 48.5164 7.72271C48.2197 7.47346 47.9071 7.22816 47.5866 6.98683C45.2405 8.0036 43.0013 8.51793 40.8451 8.51793C38.6414 8.51793 36.4377 7.98778 34.3013 6.94331C34.1866 6.88792 31.5082 5.62585 28.715 5.62585C28.6438 5.62585 28.5686 5.62585 28.4934 5.62981C25.2136 5.70498 23.37 6.8721 22.1277 7.88887C20.921 7.91656 19.8766 8.20933 18.9508 8.46649C18.1239 8.69596 17.4078 8.89773 16.7115 8.89378C16.4227 8.89378 15.9084 8.86608 15.8609 8.86608C15.0578 8.84234 11.0223 7.85326 7.80979 6.63472C7.48141 6.86814 7.16491 7.10552 6.86027 7.35081C10.2152 8.72761 14.2982 9.79186 15.5879 9.87494C15.9479 9.89868 16.3277 9.93825 16.7115 9.93825C17.5621 9.93825 18.4127 9.70087 19.2396 9.46744C19.7262 9.32897 20.2603 9.18259 20.8261 9.07577C20.6757 9.22215 20.5254 9.37249 20.3751 9.52283L18.0448 12.043C17.8628 12.229 17.4632 12.7235 17.7243 13.3288C17.8272 13.5741 18.0408 13.8075 18.3376 14.0093C18.8914 14.3812 19.8845 14.6344 20.8103 14.6344C21.1584 14.6344 21.4907 14.5988 21.7954 14.5315C22.7726 14.3139 23.7933 13.495 24.8813 12.6365C25.7438 11.9481 26.9742 11.0777 27.9119 10.8205C28.173 10.7493 28.4974 10.7058 28.7546 10.7058C28.8337 10.7058 28.9049 10.7097 28.9722 10.7176C29.5933 10.7968 30.1947 11.0065 31.2668 11.8135C33.1777 13.2497 41.6363 20.648 41.7194 20.7232C41.7234 20.7271 42.2654 21.194 42.2258 21.9655C42.2061 22.3967 41.9647 22.7805 41.5493 23.0455C41.1893 23.275 40.8174 23.3897 40.4376 23.3897C39.8718 23.3897 39.4841 23.1247 39.4564 23.1049C39.4248 23.0811 36.5287 20.4225 35.4605 19.5284C35.2904 19.3859 35.1242 19.2593 34.9581 19.2593C34.8671 19.2593 34.7919 19.2949 34.7365 19.3622C34.5704 19.5679 34.7563 19.8567 34.9779 20.0427L38.3645 23.4451C38.3684 23.4491 38.7878 23.8408 38.8313 24.363C38.859 24.9287 38.59 25.3995 38.0282 25.7675C37.6286 26.0326 37.225 26.1631 36.8294 26.1631C36.3111 26.1631 35.9432 25.9257 35.8641 25.8704L35.3774 25.3916C34.4912 24.5173 33.5734 23.6152 32.9047 23.0574C32.7425 22.9229 32.5645 22.7963 32.3983 22.7963C32.3152 22.7963 32.2401 22.8279 32.1847 22.8873C32.1095 22.9704 32.0541 23.1247 32.244 23.3779C32.3232 23.4807 32.4142 23.5678 32.4142 23.5678L34.8829 26.3412C34.9027 26.3649 35.3933 26.9465 34.9383 27.5241L34.8512 27.6349C34.7761 27.718 34.697 27.7931 34.6218 27.8564C34.1985 28.2006 33.6367 28.2402 33.4151 28.2402C33.2964 28.2402 33.1817 28.2283 33.0828 28.2125C32.8375 28.169 32.6753 28.1017 32.5961 28.0068L32.5645 27.9751C32.43 27.8366 31.1837 26.5627 30.1551 25.7042C30.0206 25.5895 29.8505 25.447 29.6764 25.447C29.5893 25.447 29.5142 25.4826 29.4548 25.5459C29.2491 25.7675 29.5577 26.1038 29.6882 26.2264L31.797 28.5488C31.793 28.5686 31.7693 28.616 31.7178 28.6912C31.6427 28.7941 31.3855 29.0512 30.6219 29.1462C30.5309 29.1581 30.436 29.162 30.341 29.162C29.5537 29.162 28.711 28.7782 28.2798 28.5488C28.4776 28.1334 28.5805 27.6744 28.5805 27.2115C28.5805 25.4787 27.172 24.0663 25.4392 24.0663C25.4036 24.0663 25.364 24.0663 25.3244 24.0702C25.3798 23.279 25.269 21.7795 23.73 21.1188C23.2869 20.9289 22.8438 20.83 22.4165 20.83C22.0802 20.83 21.7558 20.8893 21.4551 21.0041C21.1347 20.3829 20.6085 19.9319 19.9161 19.6985C19.5363 19.5679 19.1565 19.5007 18.7886 19.5007C18.1477 19.5007 17.5582 19.6906 17.032 20.0625C16.5295 19.4374 15.766 19.0655 14.9628 19.0655C14.2625 19.0655 13.586 19.3464 13.0875 19.8409C12.4308 19.3385 9.83147 17.6887 2.86834 16.1062C2.53205 16.031 1.75661 15.8094 1.28186 15.671C1.20273 16.0468 1.14338 16.4306 1.10382 16.8143C1.10382 16.8143 2.38963 17.1229 2.63887 17.1783C9.75234 18.7569 12.1024 20.4027 12.498 20.7113C12.3635 21.0357 12.2923 21.3839 12.2923 21.736C12.2923 23.2038 13.4871 24.4026 14.9589 24.4026C15.125 24.4026 15.2872 24.3867 15.4494 24.359C15.671 25.4391 16.3792 26.262 17.4593 26.6814C17.7758 26.804 18.0962 26.8634 18.4088 26.8634C18.6105 26.8634 18.8163 26.8397 19.0141 26.7882C19.2119 27.2946 19.6629 27.9276 20.6678 28.3351C21.0199 28.4776 21.3721 28.5527 21.7163 28.5527C21.9972 28.5527 22.2701 28.5053 22.5313 28.4064C23.0139 29.5774 24.1573 30.3568 25.4352 30.3568C26.2819 30.3568 27.0929 30.0126 27.6863 29.4033C28.1928 29.6842 29.2649 30.1946 30.349 30.1986C30.4874 30.1986 30.6219 30.1867 30.7525 30.1748C31.8286 30.0403 32.3271 29.617 32.5566 29.2926C32.5961 29.2372 32.6357 29.1739 32.6674 29.1106C32.9206 29.1818 33.2015 29.2411 33.518 29.2451C34.1035 29.2451 34.6693 29.0433 35.239 28.6319C35.7968 28.2283 36.1964 27.6507 36.2518 27.1562C36.2518 27.1482 36.2557 27.1403 36.2557 27.1364C36.4456 27.1759 36.6395 27.1957 36.8294 27.1957C37.4347 27.1957 38.0282 27.0058 38.5979 26.6339C39.6938 25.9139 39.8837 24.9762 39.8679 24.363C40.0578 24.4026 40.2556 24.4223 40.4494 24.4223C41.0152 24.4223 41.573 24.2522 42.1032 23.912C42.7837 23.4768 43.1912 22.8121 43.2545 22.0406C43.298 21.5144 43.1674 20.9843 42.8905 20.5293C44.7262 19.7381 48.9239 18.207 53.8614 17.0952C53.8297 16.7115 53.7783 16.3356 53.7071 15.9558C47.733 17.293 43.2743 19.2237 42.1546 19.7222ZM25.4392 29.3836C24.28 29.3836 23.3344 28.4815 23.2909 27.3302C23.2869 27.2313 23.279 26.9702 23.0575 26.9702C22.9665 26.9702 22.8873 27.0256 22.7963 27.1087C22.5431 27.3461 22.2148 27.5874 21.74 27.5874C21.5264 27.5874 21.2929 27.536 21.0437 27.4371C19.8172 26.9425 19.8014 26.0998 19.8489 25.7596C19.8607 25.6686 19.8687 25.5736 19.8054 25.5024L19.7302 25.4352H19.655C19.5917 25.4352 19.5284 25.4589 19.4414 25.5222C19.0853 25.7714 18.7451 25.8941 18.4009 25.8941C18.211 25.8941 18.0171 25.8545 17.8193 25.7794C16.2051 25.1503 16.3317 23.6271 16.4108 23.1682C16.4227 23.0772 16.399 23.002 16.3396 22.9545L16.2249 22.8596L16.1181 22.9625C15.8016 23.2671 15.3941 23.4333 14.9589 23.4333C14.0331 23.4333 13.2814 22.6816 13.2814 21.7558C13.2814 20.83 14.037 20.0783 14.9589 20.0823C15.7936 20.0823 16.5058 20.7113 16.6126 21.5461L16.6719 21.9971L16.9172 21.6173C16.9449 21.5738 17.6215 20.5491 18.8677 20.5491C19.1051 20.5491 19.3504 20.5887 19.5957 20.6638C20.5887 20.9685 20.7549 21.8666 20.7826 22.2424C20.8023 22.46 20.9566 22.4719 20.9843 22.4719C21.0714 22.4719 21.1347 22.4165 21.1782 22.369C21.3641 22.1751 21.7716 21.8468 22.4126 21.8468C22.7053 21.8468 23.0139 21.918 23.3384 22.0565C24.9169 22.733 24.2008 24.7388 24.1929 24.7586C24.0584 25.091 24.0505 25.2373 24.181 25.3204L24.2443 25.3521H24.2918C24.363 25.3521 24.4501 25.3204 24.5965 25.2729C24.8101 25.1978 25.1345 25.087 25.4392 25.087C26.6261 25.0989 27.5914 26.0682 27.5914 27.2392C27.5914 28.4222 26.6261 29.3836 25.4392 29.3836Z" fill="#253E8A"/>
<path d="M148.512 6.51602C147.523 5.27373 146.016 4.65259 143.998 4.65259C141.981 4.65259 140.477 5.27373 139.484 6.51602C138.491 7.7583 137.996 9.2261 137.996 10.9194C137.996 12.6444 138.491 14.1161 139.484 15.3426C140.473 16.5651 141.981 17.1783 143.998 17.1783C146.016 17.1783 147.523 16.5651 148.512 15.3426C149.505 14.1161 150 12.6444 150 10.9194C150 9.2261 149.505 7.7583 148.512 6.51602ZM146.056 13.6414C145.573 14.2783 144.884 14.5988 143.986 14.5988C143.088 14.5988 142.396 14.2783 141.913 13.6414C141.427 13.0044 141.185 12.0944 141.185 10.9194C141.185 9.74438 141.427 8.83838 141.913 8.20141C142.4 7.5684 143.088 7.24794 143.986 7.24794C144.884 7.24794 145.573 7.56444 146.056 8.20141C146.534 8.83442 146.776 9.74042 146.776 10.9194C146.776 12.0984 146.534 13.0044 146.056 13.6414Z" fill="#253E8A"/>
<path d="M123.176 5.47944C122.171 4.96908 121.02 4.71191 119.726 4.71191C117.736 4.71191 116.332 5.23019 115.513 6.26675C114.998 6.93141 114.71 7.77806 114.642 8.80671H117.618C117.689 8.35173 117.835 7.9917 118.057 7.72663C118.365 7.36661 118.884 7.18461 119.623 7.18461C120.28 7.18461 120.779 7.27561 121.123 7.46156C121.463 7.64355 121.633 7.97984 121.633 8.45855C121.633 8.85418 121.412 9.14695 120.969 9.3329C120.723 9.43972 120.312 9.53071 119.738 9.60193L118.686 9.73249C117.487 9.88283 116.581 10.136 115.964 10.4921C114.836 11.1409 114.274 12.1894 114.274 13.6374C114.274 14.7531 114.623 15.6155 115.323 16.2248C116.019 16.8341 116.909 17.0873 117.981 17.1387C124.707 17.4394 124.628 13.5939 124.691 12.7947V8.37547C124.687 6.9591 124.181 5.98981 123.176 5.47944ZM121.617 12.1933C121.598 13.222 121.301 13.9341 120.735 14.3218C120.169 14.7095 119.548 14.9074 118.876 14.9074C118.448 14.9074 118.088 14.7887 117.792 14.5552C117.495 14.3218 117.348 13.942 117.348 13.4158C117.348 12.8263 117.59 12.3911 118.076 12.1102C118.365 11.9441 118.836 11.8016 119.493 11.6909L120.197 11.5603C120.545 11.493 120.822 11.4218 121.024 11.3467C121.226 11.2715 121.423 11.1765 121.621 11.0499V12.1933H121.617Z" fill="#253E8A"/>
<path d="M107.845 7.34686C108.613 7.34686 109.179 7.58424 109.543 8.059C109.792 8.41111 109.95 8.80675 110.009 9.2459H113.325C113.143 7.57237 112.557 6.40526 111.568 5.7406C110.575 5.07989 109.305 4.74756 107.754 4.74756C105.927 4.74756 104.49 5.30936 103.458 6.429C102.417 7.55259 101.899 9.11929 101.899 11.1331C101.899 12.9174 102.37 14.3733 103.307 15.4929C104.249 16.6126 105.713 17.1744 107.707 17.1744C109.701 17.1744 111.208 16.5018 112.221 15.1606C112.858 14.3298 113.214 13.4436 113.289 12.5099H109.986C109.918 13.127 109.725 13.6335 109.404 14.0212C109.084 14.4089 108.55 14.6028 107.786 14.6028C106.714 14.6028 105.986 14.1161 105.598 13.135C105.385 12.6127 105.278 11.9204 105.278 11.0618C105.278 10.1598 105.385 9.4358 105.598 8.88983C106.006 7.86118 106.753 7.34686 107.845 7.34686Z" fill="#253E8A"/>
<path d="M101.009 4.75146C94.196 4.75146 94.5996 10.7849 94.5996 10.7849V16.9132H97.6934V11.1647C97.6934 10.2231 97.8121 9.52675 98.0495 9.07177C98.4728 8.26864 99.3036 7.86509 100.538 7.86509C100.633 7.86509 100.752 7.86905 100.906 7.87696C101.056 7.88487 101.226 7.89674 101.424 7.92048V4.7752C101.286 4.76729 101.199 4.76333 101.159 4.75938C101.116 4.75542 101.068 4.75146 101.009 4.75146Z" fill="#253E8A"/>
<path d="M89.6502 13.7086C89.5197 13.8945 89.3812 14.0528 89.2269 14.1754C88.7917 14.5354 88.1983 14.6462 87.498 14.6462C86.8373 14.6462 86.319 14.5473 85.8522 14.2506C85.0807 13.7758 84.6455 12.9727 84.602 11.7977H93.1555C93.1674 10.7849 93.1357 10.0055 93.0527 9.4674C92.9102 8.54558 92.5977 7.73453 92.119 7.03822C91.5849 6.24695 90.9083 5.66933 90.0894 5.30139C89.2704 4.93741 88.3526 4.75146 87.3279 4.75146C85.6069 4.75146 84.2063 5.29348 83.1263 6.37751C82.0462 7.4655 81.5081 9.02429 81.5081 11.0578C81.5081 13.2299 82.1055 14.7966 83.3003 15.7619C84.4951 16.7233 85.8759 17.206 87.4386 17.206C89.3337 17.206 90.8055 16.6363 91.8578 15.4929C92.4236 14.8915 92.7797 14.2981 92.93 13.7086H89.6502ZM85.4961 7.95213C85.9313 7.50506 86.5406 7.27955 87.3279 7.27955C88.0519 7.27955 88.6611 7.48924 89.1517 7.91257C89.6384 8.33589 89.9113 8.95308 89.9667 9.76808H84.6771C84.7879 9.00451 85.0609 8.39919 85.4961 7.95213Z" fill="#253E8A"/>
<path d="M80.2658 16.9093H77.441V9.79982C77.441 9.15098 77.2274 7.60406 75.364 7.60406C74.1217 7.60406 73.2236 8.49819 73.2236 9.79982V16.9133H70.3948V9.79982C70.3948 9.15098 70.201 7.60406 68.3415 7.60406C67.0794 7.60406 66.2011 8.49819 66.2011 9.79982V16.9133H63.3763V9.87103C63.3763 6.93544 65.3228 4.71594 68.3455 4.71594C69.8449 4.71594 71.0634 5.345 71.8587 6.35386C72.6934 5.345 73.9357 4.71594 75.3679 4.71594C78.4499 4.71594 80.2698 6.84444 80.2698 9.87103V16.9093H80.2658Z" fill="#253E8A"/>
<path d="M137.075 1.03651C137.075 1.03651 133.961 0.704175 133.961 3.20457L133.957 6.51601C133.613 5.96213 133.166 5.53089 132.612 5.21834C132.062 4.90579 131.429 4.74754 130.713 4.74754C129.17 4.74754 127.936 5.3212 127.014 6.47249C126.088 7.62378 125.629 9.28148 125.629 11.2834C125.629 13.0202 126.096 14.4484 127.034 15.5562C127.971 16.664 129.811 17.1506 131.441 17.1506C137.134 17.1506 137.067 12.2685 137.067 12.2685L137.075 1.03651ZM133.368 13.669C132.917 14.3179 132.252 14.6383 131.385 14.6383C130.515 14.6383 129.866 14.3139 129.439 13.6611C129.012 13.0083 128.798 12.0628 128.798 10.9787C128.798 9.97384 129.008 9.13114 129.427 8.45065C129.846 7.77412 130.503 7.42992 131.405 7.42992C131.995 7.42992 132.513 7.61587 132.956 7.99172C133.68 8.60891 134.044 9.72063 134.044 11.1528C134.044 12.1854 133.819 13.0202 133.368 13.669Z" fill="#253E8A"/>
<path d="M85.9511 36.5367C85.9511 36.9561 85.8007 37.3161 85.4961 37.6128C85.1954 37.9135 84.8314 38.0599 84.4042 38.0599H82.8612V27.3145C82.8612 25.2256 83.5654 23.916 84.7246 23.0338C85.4922 22.4482 86.6316 21.8904 88.768 21.8904C90.212 21.8904 91.9014 22.4522 92.8153 23.5639C93.84 24.8181 94.2673 26.2107 94.2673 28.0345C94.2673 29.9178 93.8123 31.4409 92.9063 32.6081C91.9963 33.7475 90.8292 34.3132 89.4049 34.3132C88.6493 34.3132 87.9807 34.1787 87.407 33.9097C86.7977 33.609 86.3151 33.1461 85.9511 32.5171V36.5367ZM91.1339 28.1691C91.1339 27.0019 90.9083 26.1078 90.4494 25.4788C89.9944 24.8537 89.3456 24.5372 88.495 24.5372C87.676 24.5372 87.043 24.8537 86.5841 25.4788C86.1608 26.0485 85.9511 26.9466 85.9511 28.1691C85.9511 29.3085 86.1766 30.1591 86.6316 30.7248C87.0865 31.3539 87.7354 31.6665 88.586 31.6665C89.3733 31.6665 89.9944 31.3539 90.4494 30.7248C90.9083 30.0997 91.1339 29.2491 91.1339 28.1691Z" fill="#00AEEF"/>
<path d="M114.757 33.3242V32.5645C114.223 33.4033 113.499 33.9216 112.593 34.1313C111.683 34.337 110.785 34.2658 109.895 33.9057C109.001 33.5497 108.233 32.885 107.592 31.9118C106.955 30.9385 106.635 29.6606 106.635 28.0781C106.635 26.2265 107.058 24.7271 107.905 23.5758C108.755 22.4245 110.116 21.9023 111.992 21.8508C113.839 21.8034 114.911 22.2188 115.964 23.0179C117.115 23.8923 117.792 25.2295 117.792 27.3185V33.6407C117.795 35.6505 116.395 39.3813 111.988 39.0648C109.258 38.867 107.742 37.7473 106.9 35.2113H110.16C110.397 35.6267 110.761 35.9512 111.256 36.1727C111.742 36.3982 112.237 36.4576 112.727 36.3547C113.218 36.2518 113.665 35.9591 114.069 35.4804C114.464 34.9977 114.694 34.2816 114.757 33.3242ZM109.665 28.1691C109.665 30.2303 110.263 31.3737 111.454 31.5992C112.64 31.8208 113.523 31.5438 114.088 30.7684C114.357 30.44 114.547 29.9257 114.67 29.2254C114.789 28.5251 114.797 27.8288 114.694 27.1404C114.591 26.452 114.346 25.8388 113.958 25.3007C113.574 24.7627 113.004 24.4937 112.261 24.4937C111.248 24.4937 110.567 24.8695 110.207 25.6133C109.843 26.361 109.665 27.2156 109.665 28.1691Z" fill="#00AEEF"/>
<path d="M103.988 22.7053C102.983 22.1949 101.832 21.9377 100.538 21.9377C98.548 21.9377 97.1435 22.456 96.3245 23.4926C95.8102 24.1572 95.5214 25.0039 95.4542 26.0325H98.4293C98.5005 25.5776 98.6469 25.2175 98.8685 24.9525C99.1771 24.5924 99.6953 24.4104 100.431 24.4104C101.092 24.4104 101.59 24.5014 101.927 24.6874C102.267 24.8694 102.437 25.2057 102.437 25.6883C102.437 26.084 102.216 26.3767 101.772 26.5627C101.527 26.6695 101.116 26.7605 100.542 26.8317L99.4896 26.9623C98.2908 27.1126 97.3809 27.3658 96.7677 27.7219C95.6401 28.3707 95.0783 29.4191 95.0783 30.8672C95.0783 31.9828 95.4265 32.8453 96.1267 33.4546C96.823 34.0639 97.7132 34.321 98.7854 34.3685C105.507 34.6692 105.432 30.8236 105.495 30.0245V25.6013C105.495 24.181 104.993 23.2156 103.988 22.7053ZM102.425 29.4152C102.405 30.4478 102.109 31.156 101.543 31.5437C100.977 31.9314 100.356 32.1253 99.6835 32.1253C99.2562 32.1253 98.8962 32.0066 98.6034 31.7732C98.3067 31.5397 98.1563 31.1599 98.1563 30.6337C98.1563 30.0442 98.3977 29.6091 98.8843 29.3282C99.1731 29.162 99.6439 29.0196 100.301 28.9088L101.001 28.7782C101.353 28.711 101.626 28.6437 101.824 28.5646C102.03 28.4894 102.223 28.3945 102.421 28.2679V29.4152H102.425Z" fill="#00AEEF"/>
<path d="M129.486 23.6786C128.493 22.4363 126.99 21.8152 124.968 21.8152C122.955 21.8152 121.447 22.4363 120.454 23.6786C119.461 24.9209 118.967 26.3847 118.967 28.082C118.967 29.803 119.461 31.2787 120.454 32.5012C121.447 33.7237 122.951 34.3369 124.968 34.3369C126.986 34.3369 128.493 33.7237 129.486 32.5012C130.476 31.2748 130.97 29.803 130.97 28.082C130.97 26.3847 130.479 24.9209 129.486 23.6786ZM127.03 30.8C126.551 31.4409 125.858 31.7574 124.96 31.7574C124.062 31.7574 123.37 31.437 122.887 30.8C122.401 30.163 122.159 29.2531 122.159 28.078C122.159 26.903 122.401 25.997 122.887 25.364C123.37 24.727 124.062 24.4105 124.96 24.4105C125.858 24.4105 126.547 24.727 127.03 25.364C127.512 25.997 127.75 26.903 127.75 28.078C127.75 29.257 127.512 30.163 127.03 30.8Z" fill="#00AEEF"/>
</g>
<defs>
<clipPath id="clip0">
<rect width="150" height="39.0805" fill="white"/>
</clipPath>
</defs>
</svg>
