<svg width="24" height="24" viewBox="0 0 24 24" fill="none" xmlns="http://www.w3.org/2000/svg">
<path opacity="0.25" d="M19 20H5C4.448 20 4 19.552 4 19V5C4 4.448 4.448 4 5 4H19C19.552 4 20 4.448 20 5V19C20 19.552 19.552 20 19 20Z" fill="#FFA000"/>
<path d="M17.05 9.51377C17.05 9.59977 17.05 9.68477 17.05 9.85677C17.05 13.1138 14.564 16.8858 10.021 16.8858C8.65 16.8858 7.364 16.4568 6.25 15.7718C6.421 15.7718 6.679 15.7718 6.85 15.7718C7.964 15.7718 9.079 15.3428 9.936 14.7428C8.822 14.7428 7.965 13.9718 7.622 13.0288C7.793 13.0288 7.965 13.1148 8.051 13.1148C8.308 13.1148 8.48 13.1148 8.737 13.0288C7.623 12.7718 6.766 11.8288 6.766 10.6288C7.109 10.7998 7.452 10.8858 7.88 10.9718C7.194 10.3718 6.766 9.68577 6.766 8.82877C6.766 8.39977 6.852 7.97177 7.109 7.62877C8.309 9.08577 10.109 10.1148 12.166 10.1998C12.166 10.0288 12.08 9.85677 12.08 9.59977C12.08 8.22877 13.194 7.11377 14.566 7.11377C15.252 7.11377 15.937 7.37077 16.366 7.88477C16.966 7.79877 17.48 7.54177 17.909 7.28477C17.738 7.88477 17.309 8.31377 16.795 8.65577C17.309 8.56977 17.738 8.48477 18.252 8.22677C17.907 8.74277 17.479 9.17077 17.05 9.51377Z" fill="#6B6A81"/>
<path d="M19 3H5C3.897 3 3 3.897 3 5V19C3 20.103 3.897 21 5 21H19C20.103 21 21 20.103 21 19V5C21 3.897 20.103 3 19 3ZM5 19V5H19L19.001 19H5Z" fill="#6B6A81"/>
</svg>
