<svg width="24" height="24" viewBox="0 0 24 24" fill="none" xmlns="http://www.w3.org/2000/svg">
<path opacity="0.25" d="M21 4H3C2.448 4 2 4.448 2 5V17C2 17.552 2.448 18 3 18H5.569C7.015 16.781 9.331 16 12 16C14.669 16 16.985 16.781 18.431 18H21C21.552 18 22 17.552 22 17V5C22 4.448 21.552 4 21 4ZM12 15C10.895 15 10 14.105 10 13C10 11.895 10.895 11 12 11C13.105 11 14 11.895 14 13C14 14.105 13.105 15 12 15Z" fill="#FFA000"/>
<path d="M21 2.99921H3C1.895 2.99921 1 3.89421 1 4.99921V16.9992C1 18.1042 1.895 18.9992 3 18.9992H4.653C5.2 18.1962 6.074 17.5132 7.172 16.9992H3V4.99921H21V16.9992H16.828C17.926 17.5132 18.8 18.1962 19.347 18.9992H21C22.105 18.9992 23 18.1042 23 16.9992V4.99921C23 3.89421 22.105 2.99921 21 2.99921Z" fill="#6B6A81"/>
<path d="M12 18C8.722 18 6 19.429 6 21C6 21.415 6 22 6 22H18C18 22 18 21.415 18 21C18 19.429 15.278 18 12 18Z" fill="#6B6A81"/>
<path d="M12 12C12.598 12 13 12.402 13 13C13 13.598 12.598 14 12 14C11.402 14 11 13.598 11 13C11 12.402 11.402 12 12 12ZM12 10C10.3 10 9 11.3 9 13C9 14.7 10.3 16 12 16C13.7 16 15 14.7 15 13C15 11.3 13.7 10 12 10Z" fill="#6B6A81"/>
</svg>
