<svg width="24" height="24" viewBox="0 0 24 24" fill="none" xmlns="http://www.w3.org/2000/svg">
<path opacity="0.25" d="M21 5H3V17H21V5Z" fill="#FFA000"/>
<path d="M20 4H4C2.897 4 2 4.897 2 6V16C2 17.103 2.897 18 4 18H20C21.103 18 22 17.103 22 16V6C22 4.897 21.103 4 20 4ZM4 16V6H20L20.001 16H4Z" fill="#6B6A81"/>
<path d="M24 18H0V20H24V18Z" fill="#6B6A81"/>
<path d="M13.5 7.586L9.914 11.172L8.328 9.586L6.914 11L9.914 14L14.914 9L13.5 7.586Z" fill="#6B6A81"/>
<path d="M13.4999 7.5858L12.0857 9L15.5858 12.5001L17 11.0859L13.4999 7.5858Z" fill="#6B6A81"/>
</svg>
