<svg width="24" height="24" viewBox="0 0 24 24" fill="none" xmlns="http://www.w3.org/2000/svg">
<path opacity="0.25" d="M18 12C18 8.7 15.3 6 12 6C8.7 6 6 8.7 6 12C6 14.6 7.7 16.8 10 17.7V21C10 21.6 10.4 22 11 22H13C13.6 22 14 21.6 14 21V17.7C16.3 16.8 18 14.6 18 12Z" fill="#FFA000"/>
<path d="M24 11H21V13H24V11Z" fill="#6B6A81"/>
<path d="M3 11H0V13H3V11Z" fill="#6B6A81"/>
<path d="M13 0H11V3H13V0Z" fill="#6B6A81"/>
<path d="M19.0364 17.6556L17.6222 19.0698L19.7435 21.1911L21.1577 19.7769L19.0364 17.6556Z" fill="#6B6A81"/>
<path d="M4.25667 2.80724L2.84247 4.22144L4.96377 6.34274L6.37797 4.92854L4.25667 2.80724Z" fill="#6B6A81"/>
<path d="M19.7779 2.84202L17.6569 4.96362L19.0713 6.37762L21.1923 4.25602L19.7779 2.84202Z" fill="#6B6A81"/>
<path d="M4.93003 17.6208L2.80843 19.7418L4.22243 21.1562L6.34403 19.0352L4.93003 17.6208Z" fill="#6B6A81"/>
<path d="M13 23H11C9.9 23 9 22.1 9 21V18.3C6.6 17.2 5 14.7 5 12C5 8.1 8.1 5 12 5C15.9 5 19 8.1 19 12C19 14.7 17.4 17.2 15 18.3V21C15 22.1 14.1 23 13 23ZM12 7C9.2 7 7 9.2 7 12C7 14.1 8.3 16 10.3 16.7L11 16.9V21H13V16.9L13.7 16.7C15.7 16 17 14.1 17 12C17 9.2 14.8 7 12 7Z" fill="#6B6A81"/>
<path d="M3 11H0V13H3V11Z" fill="#6B6A81"/>
</svg>
