<svg width="24" height="24" viewBox="0 0 24 24" fill="none" xmlns="http://www.w3.org/2000/svg">
<path opacity="0.25" d="M20 8H4V20H20V8Z" fill="#FFA000"/>
<path d="M19 3H5C3.895 3 3 3.895 3 5V19C3 20.103 3.897 21 5 21H19C20.103 21 21 20.103 21 19V5C21 3.895 20.105 3 19 3ZM19 19H5V5H19V19Z" fill="#6B6A81"/>
<path d="M13 11.793L15.207 14L13 16.207L14 17.207L17.207 14L14 10.793L13 11.793Z" fill="#6B6A81"/>
<path d="M11 11.793L8.793 14L11 16.207L10 17.207L6.793 14L10 10.793L11 11.793Z" fill="#6B6A81"/>
<path d="M20 7H4V9H20V7Z" fill="#6B6A81"/>
</svg>
